<svg width="38" height="38" viewBox="0 0 38 38" fill="none" xmlns="http://www.w3.org/2000/svg">
<rect width="38" height="38" fill="white"/>
<path d="M30 7H8C7.4 7 7 7.4 7 8V30C7 30.6 7.4 31 8 31H30C30.6 31 31 30.6 31 30V8C31 7.4 30.6 7 30 7ZM14.1 27.5H10.6V16H14.2V27.5H14.1ZM12.3 14.4C11.2 14.4 10.2 13.5 10.2 12.3C10.2 11.2 11.1 10.2 12.3 10.2C13.4 10.2 14.4 11.1 14.4 12.3C14.4 13.5 13.5 14.4 12.3 14.4ZM27.5 27.5H23.9V21.9C23.9 20.6 23.9 18.9 22.1 18.9C20.2 18.9 20 20.3 20 21.8V27.5H16.4V16H19.8V17.6C20.3 16.7 21.4 15.8 23.2 15.8C26.8 15.8 27.5 18.2 27.5 21.3V27.5Z" fill="white"/>
</svg>
