<svg width="38" height="38" viewBox="0 0 38 38" fill="none" xmlns="http://www.w3.org/2000/svg">
<path d="M31 11.3C30.1 11.7 29.2 12 28.2 12.1C29.2 11.5 30 10.5 30.4 9.4C29.4 10 28.4 10.4 27.3 10.6C26.4 9.6 25.1 9 23.7 9C21 9 18.8 11.2 18.8 13.9C18.8 14.3 18.8 14.7 18.9 15C14.7 14.8 11.1 12.8 8.7 9.8C8.2 10.6 8 11.4 8 12.3C8 14 8.9 15.5 10.2 16.4C9.4 16.4 8.6 16.2 8 15.8C8 15.8 8 15.8 8 15.9C8 18.3 9.7 20.3 11.9 20.7C11.5 20.8 11.1 20.9 10.6 20.9C10.3 20.9 10 20.9 9.7 20.8C10.3 22.8 12.1 24.2 14.3 24.2C12.6 25.5 10.5 26.3 8.2 26.3C7.8 26.3 7.4 26.3 7 26.2C9.2 27.6 11.8 28.4 14.5 28.4C23.6 28.4 28.5 20.9 28.5 14.4C28.5 14.2 28.5 14 28.5 13.8C29.5 13.1 30.3 12.2 31 11.3Z" fill="white"/>
</svg>
