<svg width="38" height="38" viewBox="0 0 38 38" fill="none" xmlns="http://www.w3.org/2000/svg">
<rect width="38" height="38" fill="white"/>
<path d="M25.1334 22.7841L21.4068 21.1841C21.2845 21.1317 21.1493 21.1171 21.0186 21.1421C20.8879 21.1672 20.7677 21.2308 20.6735 21.3248L19.1175 22.8581C18.305 22.3695 17.55 21.7909 16.8669 21.1334C16.2102 20.4509 15.6316 19.6974 15.1416 18.8868L16.6749 17.3335C16.7685 17.239 16.8317 17.1187 16.8564 16.9881C16.8812 16.8574 16.8662 16.7223 16.8135 16.6002L15.2136 12.8736C15.1507 12.7272 15.0374 12.6082 14.8943 12.5382C14.7512 12.4681 14.5878 12.4516 14.4336 12.4916L11.5003 13.2669C11.3536 13.3047 11.2242 13.3913 11.1333 13.5125C11.0425 13.6337 10.9955 13.7822 11.0003 13.9336C11.187 17.3427 12.6048 20.5681 14.9903 23.0107C17.4335 25.3971 20.6605 26.8147 24.0707 27C24.222 27.0048 24.3705 26.958 24.4916 26.8672C24.6128 26.7765 24.6995 26.6472 24.7374 26.5007L25.512 23.5674C25.5532 23.4131 25.5376 23.2492 25.4681 23.1054C25.3986 22.9617 25.2798 22.8476 25.1334 22.7841Z" fill="white"/>
<path d="M23 17.6664C23 17.8432 23.0702 18.0128 23.1953 18.1378C23.3203 18.2628 23.4899 18.3331 23.6667 18.3331C23.8435 18.3331 24.013 18.2628 24.1381 18.1378C24.2631 18.0128 24.3333 17.8432 24.3333 17.6664C24.3323 16.6059 23.9105 15.5891 23.1606 14.8392C22.4107 14.0893 21.3939 13.6676 20.3334 13.6665C20.1566 13.6665 19.987 13.7367 19.862 13.8618C19.737 13.9868 19.6667 14.1563 19.6667 14.3332C19.6667 14.51 19.737 14.6795 19.862 14.8046C19.987 14.9296 20.1566 14.9998 20.3334 14.9998C21.0406 14.9998 21.7189 15.2808 22.219 15.7808C22.7191 16.2809 23 16.9592 23 17.6664Z" fill="white"/>
<path d="M20.3334 11C20.1566 11 19.987 11.0702 19.862 11.1953C19.737 11.3203 19.6667 11.4898 19.6667 11.6667C19.6667 11.8435 19.737 12.013 19.862 12.138C19.987 12.2631 20.1566 12.3333 20.3334 12.3333C21.7474 12.3349 23.103 12.8973 24.1028 13.8971C25.1026 14.897 25.665 16.2526 25.6666 17.6665C25.6666 17.8433 25.7369 18.0129 25.8619 18.1379C25.9869 18.2629 26.1565 18.3332 26.3333 18.3332C26.5101 18.3332 26.6797 18.2629 26.8047 18.1379C26.9297 18.0129 26.9999 17.8433 26.9999 17.6665C26.998 15.8991 26.295 14.2045 25.0452 12.9547C23.7954 11.7049 22.1009 11.0019 20.3334 11V11Z" fill="white"/>
</svg>
