<svg width="38" height="38" viewBox="0 0 38 38" fill="none" xmlns="http://www.w3.org/2000/svg">
<path d="M19 9.982C21.937 9.982 22.285 9.993 23.445 10.046C24.1424 10.0541 24.8332 10.1823 25.487 10.425C25.965 10.6011 26.3973 10.8824 26.752 11.248C27.1176 11.6027 27.3989 12.035 27.575 12.513C27.8177 13.1668 27.9459 13.8576 27.954 14.555C28.007 15.715 28.018 16.063 28.018 19C28.018 21.937 28.007 22.285 27.954 23.445C27.9459 24.1424 27.8177 24.8332 27.575 25.487C27.3919 25.9615 27.1116 26.3924 26.752 26.752C26.3924 27.1116 25.9615 27.3919 25.487 27.575C24.8332 27.8177 24.1424 27.9459 23.445 27.954C22.285 28.007 21.937 28.018 19 28.018C16.063 28.018 15.715 28.007 14.555 27.954C13.8576 27.9459 13.1668 27.8177 12.513 27.575C12.035 27.3989 11.6027 27.1176 11.248 26.752C10.8824 26.3973 10.6011 25.965 10.425 25.487C10.1823 24.8332 10.0541 24.1424 10.046 23.445C9.993 22.285 9.982 21.937 9.982 19C9.982 16.063 9.993 15.715 10.046 14.555C10.0541 13.8576 10.1823 13.1668 10.425 12.513C10.6011 12.035 10.8824 11.6027 11.248 11.248C11.6027 10.8824 12.035 10.6011 12.513 10.425C13.1668 10.1823 13.8576 10.0541 14.555 10.046C15.715 9.993 16.063 9.982 19 9.982ZM19 8C16.013 8 15.638 8.013 14.465 8.066C13.5526 8.08486 12.6499 8.25762 11.795 8.577C11.0635 8.86017 10.3994 9.29319 9.84521 9.84824C9.29102 10.4033 8.85904 11.0681 8.577 11.8C8.25762 12.6549 8.08486 13.5576 8.066 14.47C8.013 15.638 8 16.013 8 19C8 21.987 8.013 22.362 8.066 23.535C8.08486 24.4474 8.25762 25.3501 8.577 26.205C8.86017 26.9365 9.29319 27.6006 9.84824 28.1548C10.4033 28.709 11.0681 29.141 11.8 29.423C12.6549 29.7424 13.5576 29.9151 14.47 29.934C15.638 29.987 16.013 30 19 30C21.987 30 22.362 29.987 23.535 29.934C24.4474 29.9151 25.3501 29.7424 26.205 29.423C26.9365 29.1398 27.6006 28.7068 28.1548 28.1518C28.709 27.5967 29.141 26.9319 29.423 26.2C29.7424 25.3451 29.9151 24.4424 29.934 23.53C29.987 22.362 30 21.987 30 19C30 16.013 29.987 15.638 29.934 14.465C29.9151 13.5526 29.7424 12.6499 29.423 11.795C29.1398 11.0635 28.7068 10.3994 28.1518 9.84521C27.5967 9.29102 26.9319 8.85904 26.2 8.577C25.3451 8.25762 24.4424 8.08486 23.53 8.066C22.362 8.013 21.987 8 19 8Z" fill="white"/>
<path d="M19.0006 13.3511C17.8833 13.3511 16.7911 13.6824 15.8621 14.3031C14.9332 14.9238 14.2091 15.8061 13.7816 16.8383C13.354 17.8705 13.2421 19.0063 13.4601 20.1021C13.6781 21.1979 14.2161 22.2045 15.0061 22.9945C15.7961 23.7845 16.8027 24.3226 17.8985 24.5405C18.9943 24.7585 20.1301 24.6466 21.1623 24.2191C22.1946 23.7915 23.0768 23.0675 23.6975 22.1385C24.3183 21.2095 24.6496 20.1173 24.6496 19.0001C24.6496 17.5019 24.0544 16.065 22.995 15.0056C21.9356 13.9462 20.4988 13.3511 19.0006 13.3511ZM19.0006 22.6671C18.2753 22.6671 17.5663 22.452 16.9633 22.0491C16.3603 21.6461 15.8902 21.0734 15.6127 20.4034C15.3352 19.7333 15.2625 18.996 15.404 18.2847C15.5455 17.5733 15.8948 16.92 16.4076 16.4071C16.9204 15.8943 17.5738 15.545 18.2852 15.4035C18.9965 15.262 19.7338 15.3347 20.4039 15.6122C21.0739 15.8898 21.6466 16.3598 22.0496 16.9628C22.4525 17.5658 22.6676 18.2748 22.6676 19.0001C22.6676 19.9726 22.2812 20.9053 21.5935 21.593C20.9058 22.2807 19.9731 22.6671 19.0006 22.6671Z" fill="white"/>
<path d="M24.8718 14.4481C25.6008 14.4481 26.1918 13.8571 26.1918 13.1281C26.1918 12.3991 25.6008 11.8081 24.8718 11.8081C24.1427 11.8081 23.5518 12.3991 23.5518 13.1281C23.5518 13.8571 24.1427 14.4481 24.8718 14.4481Z" fill="white"/>
</svg>
