<svg width="38" height="38" viewBox="0 0 38 38" fill="none" xmlns="http://www.w3.org/2000/svg">
<path d="M25.1334 22.7841L21.4068 21.1841C21.2845 21.1317 21.1493 21.1171 21.0186 21.1421C20.8879 21.1672 20.7677 21.2308 20.6735 21.3248L19.1175 22.8581C18.305 22.3695 17.55 21.7909 16.8669 21.1334C16.2102 20.4509 15.6316 19.6974 15.1416 18.8868L16.6749 17.3335C16.7685 17.239 16.8317 17.1187 16.8564 16.9881C16.8812 16.8574 16.8662 16.7223 16.8135 16.6002L15.2136 12.8736C15.1507 12.7272 15.0374 12.6082 14.8943 12.5382C14.7512 12.4681 14.5878 12.4516 14.4336 12.4916L11.5003 13.2669C11.3536 13.3047 11.2242 13.3913 11.1333 13.5125C11.0425 13.6337 10.9955 13.7822 11.0003 13.9336C11.187 17.3427 12.6048 20.5681 14.9903 23.0107C17.4335 25.3971 20.6605 26.8147 24.0707 27C24.222 27.0048 24.3705 26.958 24.4916 26.8672C24.6128 26.7765 24.6995 26.6472 24.7374 26.5007L25.512 23.5674C25.5532 23.4131 25.5376 23.2492 25.4681 23.1054C25.3986 22.9617 25.2798 22.8476 25.1334 22.7841Z" fill="white"/>
<path d="M23.0003 17.6664C23.0003 17.8432 23.0705 18.0128 23.1955 18.1378C23.3205 18.2628 23.4901 18.3331 23.6669 18.3331C23.8437 18.3331 24.0133 18.2628 24.1383 18.1378C24.2633 18.0128 24.3336 17.8432 24.3336 17.6664C24.3325 16.6059 23.9107 15.5891 23.1608 14.8392C22.4109 14.0893 21.3942 13.6676 20.3336 13.6665C20.1568 13.6665 19.9873 13.7367 19.8623 13.8618C19.7372 13.9868 19.667 14.1563 19.667 14.3332C19.667 14.51 19.7372 14.6795 19.8623 14.8046C19.9873 14.9296 20.1568 14.9998 20.3336 14.9998C21.0409 14.9998 21.7191 15.2808 22.2192 15.7808C22.7193 16.2809 23.0003 16.9592 23.0003 17.6664Z" fill="white"/>
<path d="M20.3336 11C20.1568 11 19.9873 11.0702 19.8623 11.1953C19.7372 11.3203 19.667 11.4898 19.667 11.6667C19.667 11.8435 19.7372 12.013 19.8623 12.138C19.9873 12.2631 20.1568 12.3333 20.3336 12.3333C21.7476 12.3349 23.1032 12.8973 24.1031 13.8971C25.1029 14.897 25.6653 16.2526 25.6669 17.6665C25.6669 17.8433 25.7371 18.0129 25.8621 18.1379C25.9871 18.2629 26.1567 18.3332 26.3335 18.3332C26.5103 18.3332 26.6799 18.2629 26.8049 18.1379C26.9299 18.0129 27.0002 17.8433 27.0002 17.6665C26.9982 15.8991 26.2952 14.2045 25.0455 12.9547C23.7957 11.7049 22.1011 11.0019 20.3336 11V11Z" fill="white"/>
</svg>
