<svg width="38" height="38" viewBox="0 0 38 38" fill="none" xmlns="http://www.w3.org/2000/svg">
<rect width="38" height="38" fill="white"/>
<path d="M25.3334 12H12.6668C12.1069 12 11.5699 12.2107 11.174 12.5858C10.7781 12.9609 10.5557 13.4696 10.5557 14V23.3333C10.5557 23.8638 10.7781 24.3725 11.174 24.7475C11.5699 25.1226 12.1069 25.3333 12.6668 25.3333H25.3334C25.8933 25.3333 26.4303 25.1226 26.8262 24.7475C27.2221 24.3725 27.4446 23.8638 27.4446 23.3333V14C27.4446 13.4696 27.2221 12.9609 26.8262 12.5858C26.4303 12.2107 25.8933 12 25.3334 12ZM25.1223 15.2L19.4927 19.8667C19.3394 19.9415 19.172 19.9868 19.0001 20C18.8282 19.9868 18.6608 19.9415 18.5075 19.8667L12.8779 15.2C12.7379 15.0851 12.6519 14.9222 12.6387 14.7471C12.6255 14.5721 12.6862 14.3993 12.8075 14.2667C12.9288 14.1341 13.1008 14.0525 13.2855 14.04C13.4703 14.0275 13.6527 14.0851 13.7927 14.2L18.9297 18.4667L24.0668 14.2C24.1352 14.1414 24.2155 14.0964 24.3027 14.0679C24.3899 14.0394 24.4823 14.028 24.5744 14.0342C24.6664 14.0404 24.7562 14.0642 24.8383 14.1042C24.9203 14.1441 24.993 14.1994 25.052 14.2667C25.1299 14.3178 25.1948 14.3848 25.2417 14.4628C25.2887 14.5408 25.3166 14.6278 25.3234 14.7173C25.3301 14.8069 25.3156 14.8968 25.2808 14.9803C25.246 15.0639 25.1918 15.1389 25.1223 15.2Z" fill="white"/>
</svg>
