<svg id="visual" viewBox="0 0 675 900" width="675" height="900" xmlns="http://www.w3.org/2000/svg" xmlns:xlink="http://www.w3.org/1999/xlink" version="1.1"><rect x="0" y="0" width="675" height="900" fill="#FFFFFF"></rect><path d="M0 598L18.8 620.3C37.7 642.7 75.3 687.3 112.8 698C150.3 708.7 187.7 685.3 225.2 651.5C262.7 617.7 300.3 573.3 337.8 575.8C375.3 578.3 412.7 627.7 450.2 626.7C487.7 625.7 525.3 574.3 562.8 563.2C600.3 552 637.7 581 656.3 595.5L675 610L675 0L656.3 0C637.7 0 600.3 0 562.8 0C525.3 0 487.7 0 450.2 0C412.7 0 375.3 0 337.8 0C300.3 0 262.7 0 225.2 0C187.7 0 150.3 0 112.8 0C75.3 0 37.7 0 18.8 0L0 0Z" fill="#e2d6f8"></path><path d="M0 495L18.8 507.2C37.7 519.3 75.3 543.7 112.8 541.5C150.3 539.3 187.7 510.7 225.2 484.8C262.7 459 300.3 436 337.8 429.2C375.3 422.3 412.7 431.7 450.2 436C487.7 440.3 525.3 439.7 562.8 447.7C600.3 455.7 637.7 472.3 656.3 480.7L675 489L675 0L656.3 0C637.7 0 600.3 0 562.8 0C525.3 0 487.7 0 450.2 0C412.7 0 375.3 0 337.8 0C300.3 0 262.7 0 225.2 0C187.7 0 150.3 0 112.8 0C75.3 0 37.7 0 18.8 0L0 0Z" fill="#cdb7f4"></path><path d="M0 399L18.8 392.8C37.7 386.7 75.3 374.3 112.8 384.5C150.3 394.7 187.7 427.3 225.2 420.7C262.7 414 300.3 368 337.8 366.8C375.3 365.7 412.7 409.3 450.2 416.3C487.7 423.3 525.3 393.7 562.8 375C600.3 356.3 637.7 348.7 656.3 344.8L675 341L675 0L656.3 0C637.7 0 600.3 0 562.8 0C525.3 0 487.7 0 450.2 0C412.7 0 375.3 0 337.8 0C300.3 0 262.7 0 225.2 0C187.7 0 150.3 0 112.8 0C75.3 0 37.7 0 18.8 0L0 0Z" fill="#b899f0"></path><path d="M0 321L18.8 309.2C37.7 297.3 75.3 273.7 112.8 271.7C150.3 269.7 187.7 289.3 225.2 294.2C262.7 299 300.3 289 337.8 277.8C375.3 266.7 412.7 254.3 450.2 259.5C487.7 264.7 525.3 287.3 562.8 302.7C600.3 318 637.7 326 656.3 330L675 334L675 0L656.3 0C637.7 0 600.3 0 562.8 0C525.3 0 487.7 0 450.2 0C412.7 0 375.3 0 337.8 0C300.3 0 262.7 0 225.2 0C187.7 0 150.3 0 112.8 0C75.3 0 37.7 0 18.8 0L0 0Z" fill="#a27beb"></path><path d="M0 153L18.8 157.7C37.7 162.3 75.3 171.7 112.8 174.5C150.3 177.3 187.7 173.7 225.2 178C262.7 182.3 300.3 194.7 337.8 200.7C375.3 206.7 412.7 206.3 450.2 191.7C487.7 177 525.3 148 562.8 142.5C600.3 137 637.7 155 656.3 164L675 173L675 0L656.3 0C637.7 0 600.3 0 562.8 0C525.3 0 487.7 0 450.2 0C412.7 0 375.3 0 337.8 0C300.3 0 262.7 0 225.2 0C187.7 0 150.3 0 112.8 0C75.3 0 37.7 0 18.8 0L0 0Z" fill="#8a5ce5"></path></svg>