<svg id="visual" viewBox="0 0 675 900" width="675" height="900" xmlns="http://www.w3.org/2000/svg" xmlns:xlink="http://www.w3.org/1999/xlink" version="1.1"><rect x="0" y="0" width="675" height="900" fill="#FFFFFF"></rect><path d="M450 0L466.7 25C483.3 50 516.7 100 524.7 150C532.7 200 515.3 250 490.2 300C465 350 432 400 434 450C436 500 473 550 472.2 600C471.3 650 432.7 700 424.3 750C416 800 438 850 449 875L460 900L0 900L0 875C0 850 0 800 0 750C0 700 0 650 0 600C0 550 0 500 0 450C0 400 0 350 0 300C0 250 0 200 0 150C0 100 0 50 0 25L0 0Z" fill="#e2d6f8"></path><path d="M373 0L382.2 25C391.3 50 409.7 100 408 150C406.3 200 384.7 250 365.3 300C346 350 329 400 323.8 450C318.7 500 325.3 550 328.5 600C331.7 650 331.3 700 337.3 750C343.3 800 355.7 850 361.8 875L368 900L0 900L0 875C0 850 0 800 0 750C0 700 0 650 0 600C0 550 0 500 0 450C0 400 0 350 0 300C0 250 0 200 0 150C0 100 0 50 0 25L0 0Z" fill="#cdb7f4"></path><path d="M301 0L296.3 25C291.7 50 282.3 100 290 150C297.7 200 322.3 250 317.3 300C312.3 350 277.7 400 276.8 450C276 500 309 550 314.2 600C319.3 650 296.7 700 282.5 750C268.3 800 262.7 850 259.8 875L257 900L0 900L0 875C0 850 0 800 0 750C0 700 0 650 0 600C0 550 0 500 0 450C0 400 0 350 0 300C0 250 0 200 0 150C0 100 0 50 0 25L0 0Z" fill="#b899f0"></path><path d="M242 0L233.2 25C224.3 50 206.7 100 205.3 150C204 200 219 250 222.7 300C226.3 350 218.7 400 210.2 450C201.7 500 192.3 550 196.2 600C200 650 217 700 228.5 750C240 800 246 850 249 875L252 900L0 900L0 875C0 850 0 800 0 750C0 700 0 650 0 600C0 550 0 500 0 450C0 400 0 350 0 300C0 250 0 200 0 150C0 100 0 50 0 25L0 0Z" fill="#a27beb"></path><path d="M116 0L119.7 25C123.3 50 130.7 100 132.8 150C135 200 132 250 135.2 300C138.3 350 147.7 400 152.2 450C156.7 500 156.3 550 145.3 600C134.3 650 112.7 700 108.5 750C104.3 800 117.7 850 124.3 875L131 900L0 900L0 875C0 850 0 800 0 750C0 700 0 650 0 600C0 550 0 500 0 450C0 400 0 350 0 300C0 250 0 200 0 150C0 100 0 50 0 25L0 0Z" fill="#8a5ce5"></path></svg>