<svg id="visual" viewBox="0 0 900 600" width="900" height="600" xmlns="http://www.w3.org/2000/svg" xmlns:xlink="http://www.w3.org/1999/xlink" version="1.1"><path d="M0 564L25 563.2C50 562.3 100 560.7 150 554.2C200 547.7 250 536.3 300 532C350 527.7 400 530.3 450 535.7C500 541 550 549 600 554.2C650 559.3 700 561.7 750 557.5C800 553.3 850 542.7 875 537.3L900 532L900 601L875 601C850 601 800 601 750 601C700 601 650 601 600 601C550 601 500 601 450 601C400 601 350 601 300 601C250 601 200 601 150 601C100 601 50 601 25 601L0 601Z" fill="#E2D6F8"></path></svg>
