<svg width="341" height="134" viewBox="0 0 341 134" fill="none" xmlns="http://www.w3.org/2000/svg">
<rect width="341" height="134" fill="white"/>
<path d="M23.2494 0V84.9999C21.3895 84.628 19.5296 84.628 17.4836 84.9999C15.6237 85.3719 13.7637 85.744 12.0897 86.4879C10.4158 87.2319 9.11387 87.9759 7.9979 88.9059L6.3239 87.9759C6.69589 86.8599 6.88186 85.93 6.88186 84.814C7.06785 83.698 7.06792 82.768 7.06792 81.652V13.2057C7.06792 9.85778 6.50985 7.43983 5.57987 5.76587C4.64989 4.09191 2.60394 3.3479 0 3.3479V0.929978C2.41794 1.11597 4.64991 1.30193 6.88186 1.30193C9.85779 1.30193 12.8337 1.11597 15.6237 0.929978C18.4136 0.929978 20.8315 0.557987 23.2494 0ZM40.3611 28.0853C46.1269 28.0853 50.9628 30.5033 54.8687 35.1532C58.7746 39.803 60.6346 47.2429 60.6346 56.9147C60.6346 64.7265 59.5186 70.8643 57.1007 75.5142C54.6827 80.1641 51.7068 83.512 47.8009 85.744C43.895 87.9759 39.6171 88.9059 35.1532 88.9059C32.1773 88.9059 29.2014 88.3479 26.5975 87.4179C23.9935 86.3019 21.7615 84.628 19.9015 82.21L21.3895 81.652C22.6915 83.326 24.3655 84.442 26.2254 85.372C28.0854 86.1159 29.7593 86.674 31.6192 86.674C35.7112 86.674 38.6871 84.442 40.7331 79.7921C42.779 75.1422 43.709 68.0744 43.709 58.7746C43.709 52.4508 43.337 47.2429 42.593 43.523C41.8491 39.803 40.7331 37.0131 39.2451 35.5252C37.7572 33.8512 35.8972 33.1072 33.8512 33.1072C31.2473 33.1072 28.8294 34.2232 26.7834 36.2691C24.5515 38.3151 23.4355 41.291 23.0635 45.1969L22.5055 41.291C23.8075 37.0131 26.0395 33.8512 29.3874 31.6192C32.3633 29.2013 36.0832 28.0853 40.3611 28.0853ZM120.711 28.4573V75.1422C120.711 78.4901 121.269 80.9081 122.199 82.582C123.315 84.256 125.175 84.9999 127.779 84.9999V87.4179C125.547 87.2319 123.129 87.0459 120.897 87.0459C117.735 87.0459 114.945 87.2319 112.155 87.4179C109.365 87.6039 106.947 87.9759 104.53 88.7199V78.6761C102.67 82.396 100.252 85 97.0897 86.674C93.9278 88.3479 90.3939 89.0919 86.4879 89.0919C83.326 89.0919 80.9081 88.7199 78.8622 87.7899C77.0022 87.0459 75.3283 85.93 74.2123 84.628C72.9103 83.14 71.9803 81.2801 71.6083 79.0481C71.0503 76.8162 70.8644 73.8402 70.8644 70.1203V41.849C70.8644 38.5011 70.3064 36.0831 69.3764 34.4092C68.4465 32.7352 66.4005 31.9912 63.7966 31.9912V29.5733C66.2145 29.7593 68.4464 29.9453 70.6783 29.9453C73.8402 29.9453 76.6302 29.7593 79.4201 29.5733C82.2101 29.3873 84.628 29.0153 86.86 28.4573V74.5842C86.86 76.4442 87.0459 78.1181 87.4179 79.4201C87.7899 80.908 88.348 82.0241 89.4639 82.768C90.3939 83.512 91.8819 83.884 93.7418 83.884C95.7878 83.884 97.4618 83.326 99.1357 82.21C100.81 81.094 102.112 79.6061 103.042 77.5601C103.972 75.5142 104.53 73.4683 104.53 70.8643V41.663C104.53 38.3151 103.972 35.8971 103.042 34.2232C102.112 32.5492 100.066 31.8053 97.4617 31.8053V29.5733C99.8797 29.7593 102.112 29.9453 104.344 29.9453C107.506 29.9453 110.295 29.7593 113.085 29.5733C115.875 29.3873 118.479 29.0153 120.711 28.4573ZM170.558 28.0853C172.976 28.0853 174.836 28.6433 176.324 29.5733C177.812 30.5033 178.928 31.8052 179.672 33.4792C180.416 34.9672 180.788 36.6411 180.788 38.3151C180.788 41.105 180.044 43.3369 178.37 45.0109C176.696 46.6849 174.65 47.6149 172.046 47.6149C169.442 47.6149 167.396 47.0569 165.908 45.7549C164.42 44.453 163.676 42.779 163.676 40.547C163.676 38.5011 164.048 36.8271 165.164 35.3392C166.28 33.8512 167.21 32.7352 168.698 31.8053C167.582 31.4333 166.652 31.6192 165.536 31.9912C164.048 32.1772 162.746 32.7352 161.444 33.6652C160.142 34.5952 159.026 35.7112 158.282 37.1991C157.352 38.5011 156.608 39.989 156.236 41.663C155.678 43.337 155.492 44.8249 155.492 46.3129V75.8862C155.492 79.4201 156.422 81.838 158.096 83.14C159.77 84.442 162.374 84.9999 165.908 84.9999V87.4179C164.234 87.4179 161.63 87.2319 158.468 87.2319C155.12 87.0459 151.772 87.0459 148.238 87.0459C145.263 87.0459 142.287 87.0459 139.125 87.2319C136.149 87.4179 133.731 87.4179 132.243 87.4179V84.9999C134.847 84.9999 136.707 84.442 137.823 83.326C138.939 82.21 139.497 80.1641 139.497 77.0022V41.849C139.497 38.5011 138.939 36.0831 138.009 34.4092C137.079 32.7352 135.033 31.9912 132.429 31.9912V29.5733C134.847 29.7593 137.079 29.9453 139.311 29.9453C142.473 29.9453 145.263 29.7593 148.053 29.5733C150.842 29.3873 153.26 29.0153 155.492 28.4573V38.8731C156.422 36.8271 157.538 34.9672 159.026 33.4792C160.514 31.8052 162.188 30.5033 164.234 29.5733C166.094 28.6433 168.14 28.0853 170.558 28.0853ZM204.781 28.0853C207.943 28.0853 210.733 28.4573 212.965 29.2013C215.383 29.9453 217.057 30.6893 217.987 31.4332C220.591 33.1072 222.079 31.9913 222.637 28.0853H225.055C224.869 30.1313 224.869 32.7352 224.683 35.7111C224.497 38.687 224.497 42.779 224.497 47.6149H222.079C221.707 44.8249 220.963 42.221 220.033 39.431C218.917 36.8271 217.429 34.5951 215.569 32.9212C213.523 31.2472 211.105 30.3173 207.943 30.3173C205.711 30.3173 204.037 30.8752 202.549 32.1772C201.061 33.4792 200.317 35.1532 200.317 37.3851C200.317 39.6171 201.061 41.477 202.363 43.3369C203.665 45.0109 205.339 46.6849 207.571 48.1728C209.617 49.6608 211.849 51.3348 214.267 53.0087C216.685 54.8687 218.917 56.7287 220.963 58.5886C223.009 60.4486 224.497 62.3085 225.799 64.5404C226.915 66.7724 227.659 69.1903 227.659 72.1663C227.659 75.5142 226.729 78.4901 224.683 80.9081C222.823 83.326 220.219 85.372 217.057 86.674C213.895 87.9759 210.361 88.7199 206.455 88.7199C204.223 88.7199 202.177 88.5339 200.503 87.9759C198.829 87.6039 197.155 87.0459 196.039 86.3019C195.109 85.9299 194.179 85.3719 193.249 84.9999C192.319 84.628 191.576 84.256 190.832 83.884C190.088 83.698 189.344 83.884 188.972 84.628C188.414 85.372 188.042 86.4879 187.67 87.7899H185.252C185.438 85.3719 185.438 82.582 185.624 79.0481C185.81 75.5142 185.81 71.0503 185.81 65.4704H188.228C188.6 69.5623 189.529 73.0963 190.645 76.0722C191.761 79.2341 193.435 81.652 195.481 83.326C197.527 85 200.131 85.9299 203.293 85.9299C204.595 85.9299 205.711 85.7439 207.013 85.186C208.129 84.628 209.245 83.884 209.989 82.582C210.733 81.4661 211.105 79.7921 211.105 77.9321C211.105 74.5842 209.989 71.9803 207.943 69.7483C205.897 67.5164 203.107 65.2844 199.945 62.6805C197.527 60.8205 195.295 58.7746 193.249 56.9147C191.204 55.0547 189.344 53.0087 188.042 50.5908C186.74 48.3588 185.996 45.7549 185.996 42.779C185.996 39.4311 186.926 36.6411 188.6 34.2232C190.46 31.9912 192.691 30.1313 195.667 29.0153C198.271 28.6433 201.433 28.0853 204.781 28.0853ZM249.606 88.1619C246.258 88.1619 243.468 87.6039 241.236 86.3019C239.004 85 237.33 83.326 236.4 81.28C235.284 79.2341 234.913 76.8162 234.913 74.2122C234.913 71.0503 235.656 68.4463 237.144 66.4004C238.632 64.3544 240.492 62.6805 242.724 61.5645C244.956 60.2626 247.56 59.3326 249.978 58.4026C252.582 57.6586 255 56.7287 257.418 55.9847C259.836 55.2407 261.696 54.3107 263.184 53.1947C264.672 52.0788 265.416 50.7768 265.416 49.1028V40.361C265.416 38.5011 265.044 36.6411 264.486 35.1532C263.928 33.6652 262.812 32.3632 261.51 31.6192C260.208 30.8753 258.534 30.3173 256.488 30.3173C255 30.3173 253.512 30.5033 252.024 30.8753C250.536 31.2473 249.234 31.9912 248.304 32.9212C250.35 33.6652 252.024 34.7812 253.14 36.2691C254.256 37.7571 254.814 39.617 254.814 41.477C254.814 44.0809 253.884 45.9409 252.21 47.4289C250.536 48.9168 248.304 49.6608 246.072 49.6608C243.468 49.6608 241.422 48.9168 239.934 47.2429C238.632 45.5689 237.888 43.523 237.888 41.105C237.888 38.8731 238.446 37.1991 239.562 35.7111C240.678 34.2232 242.166 32.9212 244.026 31.6192C246.072 30.5033 248.676 29.5733 251.466 28.8293C254.442 28.0853 257.604 27.8993 260.952 27.8993C264.3 27.8993 267.462 28.2713 270.252 29.0153C273.042 29.7593 275.273 31.0612 277.133 32.9212C278.807 34.5951 279.923 36.6411 280.481 39.2451C281.039 41.663 281.225 44.8249 281.225 48.7308V79.0481C281.225 80.9081 281.411 82.2101 281.783 82.954C282.155 83.698 282.713 84.07 283.643 84.07C284.387 84.07 284.945 83.884 285.503 83.512C286.061 83.14 286.805 82.768 287.549 82.21L288.665 84.07C287.177 85.3719 285.317 86.4879 283.271 87.2319C281.225 87.9759 278.993 88.3479 276.389 88.3479C273.6 88.3479 271.368 87.9759 269.88 87.2319C268.392 86.4879 267.09 85.3719 266.346 84.07C265.602 82.768 265.23 81.094 265.23 79.4201C263.37 82.21 261.324 84.442 258.72 86.1159C256.302 87.4179 253.326 88.1619 249.606 88.1619ZM257.604 80.9081C259.092 80.9081 260.394 80.5361 261.696 79.7921C262.998 79.0481 264.114 77.9321 265.23 76.2582V53.3807C264.486 54.4967 263.556 55.4267 262.44 56.3566C261.324 57.2866 260.022 58.2166 258.72 59.1466C257.418 60.0765 256.116 61.0065 254.814 62.3085C253.512 63.4245 252.582 64.7264 251.838 66.4004C251.094 68.0743 250.722 69.9343 250.722 72.3523C250.722 75.3282 251.28 77.3741 252.582 78.8621C253.884 80.3501 255.372 80.9081 257.604 80.9081ZM329.77 28.0853C332.188 28.0853 334.048 28.6433 335.536 29.5733C337.024 30.5033 338.14 31.8052 338.884 33.4792C339.628 34.9672 340 36.6411 340 38.3151C340 41.105 339.256 43.3369 337.582 45.0109C335.908 46.6849 333.862 47.6149 331.258 47.6149C328.654 47.6149 326.608 47.0569 325.12 45.7549C323.632 44.453 322.888 42.779 322.888 40.547C322.888 38.5011 323.26 36.8271 324.376 35.3392C325.306 34.0372 326.422 32.7352 327.91 31.8053C326.794 31.4333 325.864 31.6192 324.748 31.9912C323.26 32.1772 321.958 32.7352 320.656 33.6652C319.354 34.5952 318.238 35.7112 317.494 37.1991C316.564 38.5011 315.821 39.989 315.449 41.663C314.891 43.337 314.705 44.8249 314.705 46.3129V75.8862C314.705 79.4201 315.635 81.838 317.309 83.14C318.982 84.442 321.586 84.9999 325.12 84.9999V87.4179C323.446 87.4179 320.842 87.2319 317.681 87.2319C314.333 87.0459 310.985 87.0459 307.451 87.0459C304.475 87.0459 301.499 87.0459 298.337 87.2319C295.361 87.4179 292.943 87.4179 291.455 87.4179V84.9999C294.059 84.9999 295.919 84.442 297.035 83.326C298.151 82.21 298.709 80.1641 298.709 77.0022V41.849C298.709 38.5011 298.151 36.0831 297.221 34.4092C296.291 32.7352 294.245 31.9912 291.641 31.9912V29.5733C294.059 29.7593 296.291 29.9453 298.523 29.9453C301.685 29.9453 304.475 29.7593 307.265 29.5733C310.055 29.3873 312.473 29.0153 314.705 28.4573V38.8731C315.635 36.8271 316.751 34.9672 318.239 33.4792C319.726 31.8052 321.4 30.5033 323.446 29.5733C325.492 28.6433 327.538 28.0853 329.77 28.0853Z" fill="url(#paint0_linear_135_570)"/>
<path d="M9.85789 103.971V113.643H22.6915V115.875H9.85789V126.291H7.25391V101.553H24.1795V103.785H9.85789V103.971Z" fill="#8A5CE5"/>
<path d="M28.6439 103.227C28.2719 102.855 28.0859 102.483 28.0859 101.925C28.0859 101.367 28.2719 100.995 28.6439 100.623C29.0159 100.251 29.3879 100.065 29.9459 100.065C30.5039 100.065 30.8759 100.251 31.2479 100.623C31.6199 100.995 31.8058 101.367 31.8058 101.925C31.8058 102.483 31.6199 102.855 31.2479 103.227C30.8759 103.599 30.5039 103.785 29.9459 103.785C29.3879 103.785 29.0159 103.599 28.6439 103.227ZM28.6439 107.877H31.0618V126.477H28.6439V107.877Z" fill="#8A5CE5"/>
<path d="M53.1951 109.737C54.497 111.039 55.241 113.085 55.241 115.689V126.477H52.8231V115.875C52.8231 114.015 52.2651 112.527 51.3351 111.411C50.4051 110.481 48.9172 109.923 47.2432 109.923C45.1972 109.923 43.7093 110.481 42.4074 111.783C41.1054 113.085 40.7333 114.573 40.7333 116.805V126.477H38.3154V107.877H40.7333V111.225C41.4773 110.109 42.4073 109.179 43.5233 108.621C44.8253 108.063 46.1272 107.691 47.8012 107.691C50.0331 107.691 51.8931 108.435 53.1951 109.737Z" fill="#8A5CE5"/>
<path d="M74.212 109.551C75.5139 110.853 76.0719 112.527 76.0719 114.945V126.476H73.654V123.5C73.096 124.43 72.1661 125.174 71.2361 125.732C70.1201 126.29 68.8181 126.476 67.3301 126.476C65.2841 126.476 63.6102 125.918 62.3082 124.988C61.0062 124.058 60.4482 122.756 60.4482 121.083C60.4482 119.595 61.0063 118.293 62.1222 117.177C63.2382 116.061 65.0982 115.689 67.5162 115.689H73.4679V114.573C73.4679 112.899 73.096 111.783 72.1661 110.853C71.2361 109.923 69.934 109.551 68.2601 109.551C67.1441 109.551 66.0282 109.737 64.9122 110.109C63.7962 110.481 62.8662 111.039 62.1222 111.783L61.0063 109.923C61.9363 109.179 63.0522 108.435 64.3542 108.063C65.6562 107.691 67.1442 107.319 68.4461 107.319C71.0501 107.691 72.91 108.249 74.212 109.551ZM71.422 123.686C72.352 123.128 73.282 122.013 73.654 120.897V117.921H67.8881C64.7261 117.921 63.0522 119.037 63.0522 121.268C63.0522 122.384 63.4242 123.128 64.3542 123.872C65.0982 124.43 66.4001 124.802 67.8881 124.802C69.19 124.616 70.3061 124.244 71.422 123.686Z" fill="#8A5CE5"/>
<path d="M98.0193 109.737C99.3213 111.039 100.065 113.085 100.065 115.689V126.477H97.6473V115.875C97.6473 114.015 97.0893 112.527 96.1593 111.411C95.2294 110.481 93.7414 109.923 92.0674 109.923C90.0215 109.923 88.5335 110.481 87.2316 111.783C85.9296 113.085 85.5576 114.573 85.5576 116.805V126.477H83.1396V107.877H85.5576V111.225C86.3016 110.109 87.2315 109.179 88.3475 108.621C89.6495 108.063 90.9515 107.691 92.6255 107.691C94.8574 107.691 96.5313 108.435 98.0193 109.737Z" fill="#8A5CE5"/>
<path d="M109.738 125.361C108.25 124.617 107.134 123.501 106.39 122.013C105.646 120.525 105.088 118.851 105.088 117.177C105.088 115.317 105.46 113.829 106.39 112.341C107.134 110.853 108.436 109.737 109.738 108.993C111.04 108.249 112.9 107.877 114.76 107.877C116.434 107.877 117.736 108.249 119.038 108.807C120.34 109.365 121.27 110.295 122.014 111.597L120.154 112.899C119.596 111.969 118.852 111.225 117.736 110.853C116.62 110.481 115.69 110.109 114.574 110.109C113.272 110.109 111.97 110.481 111.04 111.039C110.11 111.597 109.18 112.527 108.622 113.643C108.064 114.759 107.692 116.061 107.692 117.363C107.692 118.851 108.064 120.153 108.622 121.083C109.18 122.199 110.11 122.943 111.04 123.687C112.156 124.245 113.272 124.617 114.574 124.617C115.69 124.617 116.62 124.431 117.736 123.873C118.666 123.501 119.41 122.757 120.154 121.827L122.014 123.129C121.27 124.245 120.34 125.175 119.038 125.918C117.736 126.476 116.248 126.848 114.76 126.848C112.9 126.662 111.226 126.105 109.738 125.361Z" fill="#8A5CE5"/>
<path d="M126.849 103.227C126.477 102.855 126.291 102.483 126.291 101.925C126.291 101.367 126.477 100.995 126.849 100.623C127.221 100.251 127.593 100.065 128.151 100.065C128.709 100.065 129.081 100.251 129.453 100.623C129.825 100.995 130.011 101.367 130.011 101.925C130.011 102.483 129.825 102.855 129.453 103.227C129.081 103.599 128.709 103.785 128.151 103.785C127.593 103.785 127.221 103.599 126.849 103.227ZM126.849 107.877H129.267V126.477H126.849V107.877Z" fill="#8A5CE5"/>
<path d="M151.4 109.737C152.702 111.039 153.446 113.085 153.446 115.689V126.477H151.028V115.875C151.028 114.015 150.47 112.527 149.54 111.411C148.61 110.481 147.122 109.923 145.448 109.923C143.402 109.923 141.914 110.481 140.612 111.783C139.31 113.085 138.938 114.573 138.938 116.805V126.477H136.521V107.877H138.938V111.225C139.682 110.109 140.612 109.179 141.728 108.621C143.03 108.063 144.332 107.691 146.006 107.691C148.238 107.691 150.098 108.435 151.4 109.737Z" fill="#8A5CE5"/>
<path d="M177.626 107.877V124.245C177.626 127.406 176.882 129.824 175.394 131.312C173.906 132.8 171.488 133.544 168.326 133.544C166.652 133.544 164.978 133.358 163.49 132.8C162.002 132.242 160.7 131.684 159.77 130.754L161.072 128.894C162.002 129.638 163.118 130.382 164.42 130.754C165.722 131.126 167.024 131.498 168.512 131.498C170.93 131.498 172.604 130.94 173.72 129.824C174.836 128.708 175.394 127.035 175.394 124.803V122.385C174.65 123.501 173.534 124.431 172.418 124.989C171.116 125.546 169.814 125.918 168.14 125.918C166.466 125.918 164.792 125.547 163.304 124.803C161.816 124.059 160.7 122.943 159.956 121.641C159.212 120.339 158.654 118.665 158.654 116.991C158.654 115.317 159.026 113.643 159.956 112.341C160.7 111.039 161.816 109.923 163.304 109.179C164.792 108.435 166.28 108.063 168.14 108.063C169.628 108.063 171.116 108.435 172.418 108.993C173.72 109.551 174.65 110.481 175.58 111.783V108.249H177.626V107.877ZM171.674 122.571C172.79 122.013 173.534 121.269 174.278 120.153C175.022 119.037 175.208 117.921 175.208 116.619C175.208 115.317 174.836 114.201 174.278 113.085C173.72 111.969 172.79 111.225 171.86 110.667C170.744 110.109 169.628 109.737 168.14 109.737C166.838 109.737 165.536 110.109 164.606 110.667C163.49 111.225 162.746 111.969 162.188 113.085C161.63 114.201 161.258 115.317 161.258 116.619C161.258 117.921 161.63 119.037 162.188 120.153C162.746 121.269 163.676 122.013 164.606 122.571C165.722 123.129 166.838 123.501 168.14 123.501C169.442 123.501 170.558 123.129 171.674 122.571Z" fill="#8A5CE5"/>
<path d="M196.969 103.971V113.643H209.803V115.875H196.969V126.291H194.365V101.553H211.291V103.785H196.969V103.971Z" fill="#8A5CE5"/>
<path d="M232.308 107.877V126.477H229.89V123.129C229.146 124.245 228.402 125.175 227.101 125.733C225.985 126.291 224.683 126.663 223.195 126.663C220.777 126.663 218.917 125.919 217.429 124.617C215.941 123.315 215.383 121.269 215.383 118.665V107.877H217.801V118.479C217.801 120.525 218.359 121.827 219.289 122.943C220.219 123.873 221.707 124.431 223.381 124.431C225.427 124.431 226.915 123.873 228.03 122.571C229.146 121.455 229.704 119.781 229.704 117.549V107.877H232.308V107.877Z" fill="#8A5CE5"/>
<path d="M249.234 125.36C248.676 125.732 248.118 126.104 247.56 126.29C246.816 126.476 246.072 126.662 245.328 126.662C243.654 126.662 242.166 126.104 241.236 125.174C240.306 124.244 239.748 122.942 239.748 121.268V110.109H236.4V108.063H239.748V103.971H242.166V108.063H247.746V110.109H242.166V121.268C242.166 122.384 242.352 123.128 242.91 123.872C243.468 124.43 244.212 124.802 245.328 124.802C245.886 124.802 246.258 124.802 246.816 124.616C247.374 124.43 247.746 124.244 248.118 123.872L249.234 125.36Z" fill="#8A5CE5"/>
<path d="M270.437 107.877V126.477H268.019V123.129C267.275 124.245 266.531 125.175 265.229 125.733C264.113 126.291 262.811 126.663 261.323 126.663C258.905 126.663 257.046 125.919 255.558 124.617C254.07 123.315 253.512 121.269 253.512 118.665V107.877H255.93V118.479C255.93 120.525 256.488 121.827 257.418 122.943C258.348 124.059 259.836 124.431 261.51 124.431C263.555 124.431 265.043 123.873 266.159 122.571C267.275 121.455 267.833 119.781 267.833 117.549V107.877H270.437V107.877Z" fill="#8A5CE5"/>
<path d="M282.527 108.621C283.643 108.063 285.131 107.691 286.805 107.691V110.109H286.247C284.201 110.109 282.713 110.667 281.597 111.969C280.481 113.085 279.923 114.945 279.923 116.991V126.477H277.505V107.877H279.923V111.597C280.481 110.295 281.411 109.365 282.527 108.621Z" fill="#8A5CE5"/>
<path d="M307.451 117.921H291.827C292.013 119.781 292.757 121.455 294.059 122.571C295.361 123.687 297.035 124.431 299.081 124.431C300.197 124.431 301.313 124.245 302.243 123.873C303.173 123.501 304.103 122.943 304.661 122.013L306.149 123.687C305.405 124.617 304.289 125.361 302.987 125.919C301.685 126.477 300.383 126.663 298.895 126.663C297.035 126.663 295.361 126.291 293.873 125.361C292.385 124.617 291.269 123.501 290.339 122.013C289.595 120.525 289.037 119.037 289.037 117.177C289.037 115.317 289.409 113.829 290.153 112.341C290.897 110.853 292.013 109.737 293.315 108.993C294.617 108.249 296.291 107.877 297.965 107.877C299.639 107.877 301.313 108.249 302.615 108.993C303.917 109.737 305.033 110.853 305.777 112.341C306.521 113.829 306.893 115.317 306.893 117.177L307.451 117.921ZM293.873 111.597C292.571 112.713 292.013 114.201 291.827 116.061H305.033C304.847 114.201 304.103 112.713 302.987 111.597C301.871 110.481 300.197 109.923 298.523 109.923C296.663 109.923 295.175 110.481 293.873 111.597Z" fill="#8A5CE5"/>
<path d="M313.217 125.918C311.915 125.546 310.799 124.988 310.055 124.244L311.171 122.198C311.915 122.756 312.845 123.314 314.147 123.686C315.263 124.058 316.565 124.244 317.867 124.244C319.54 124.244 320.842 124.058 321.586 123.5C322.33 122.942 322.888 122.198 322.888 121.268C322.888 120.525 322.702 119.967 322.144 119.595C321.772 119.223 321.214 118.851 320.471 118.665C319.727 118.479 318.797 118.293 317.681 118.107C316.193 117.735 314.891 117.549 313.961 117.177C313.031 116.805 312.287 116.433 311.543 115.689C310.985 114.945 310.613 114.015 310.613 112.713C310.613 111.225 311.171 109.923 312.473 108.807C313.775 107.877 315.635 107.319 317.867 107.319C318.982 107.319 320.285 107.505 321.4 107.877C322.516 108.249 323.632 108.621 324.376 109.179L323.26 111.225C321.772 110.109 319.912 109.551 317.867 109.551C316.193 109.551 315.077 109.923 314.333 110.481C313.589 111.039 313.031 111.783 313.031 112.713C313.031 113.457 313.217 114.015 313.775 114.387C314.147 114.759 314.891 115.131 315.449 115.317C316.193 115.503 317.123 115.689 318.239 115.875C319.727 116.247 320.842 116.433 321.772 116.805C322.702 117.177 323.446 117.549 324.004 118.293C324.562 119.037 324.934 119.967 324.934 121.083C324.934 122.756 324.19 124.058 322.888 124.988C321.586 125.918 319.727 126.476 317.309 126.476C316.007 126.662 314.519 126.29 313.217 125.918Z" fill="#8A5CE5"/>
<defs>
<linearGradient id="paint0_linear_135_570" x1="15.8096" y1="89.0919" x2="325.492" y2="89.0919" gradientUnits="userSpaceOnUse">
<stop offset="0.0416667" stop-color="#8A5CE5"/>
<stop offset="0.505208" stop-color="#6C5CE7"/>
<stop offset="0.958333" stop-color="#7A88FF"/>
</linearGradient>
</defs>
</svg>
