<svg width="42" height="42" viewBox="0 0 42 42" fill="none" xmlns="http://www.w3.org/2000/svg">
<rect width="42" height="42" fill="white"/>
<path d="M24.3 20.6667C24.1 19.6667 23.8 18.9333 23.3667 18.5C22.9667 18.0667 22.5 17.8667 21.9334 17.8667C21.2334 17.8667 20.6 18.1333 20 18.7333C19.5333 19.1667 19.2667 19.7667 19.1 20.4667V31.5C19.3334 31.7 19.6 31.8333 19.8667 31.9667C20.3667 32.2 20.8333 32.3 21.3333 32.3C22.4333 32.3 23.2667 31.6667 23.8 30.4333C24.3333 29.2 24.6 27.3 24.6 24.7667C24.6 23.0333 24.5 21.6667 24.3 20.6667ZM24.3 20.6667C24.1 19.6667 23.8 18.9333 23.3667 18.5C22.9667 18.0667 22.5 17.8667 21.9334 17.8667C21.2334 17.8667 20.6 18.1333 20 18.7333C19.5333 19.1667 19.2667 19.7667 19.1 20.4667V31.5C19.3334 31.7 19.6 31.8333 19.8667 31.9667C20.3667 32.2 20.8333 32.3 21.3333 32.3C22.4333 32.3 23.2667 31.6667 23.8 30.4333C24.3333 29.2 24.6 27.3 24.6 24.7667C24.6 23.0333 24.5 21.6667 24.3 20.6667ZM24.3 20.6667C24.1 19.6667 23.8 18.9333 23.3667 18.5C22.9667 18.0667 22.5 17.8667 21.9334 17.8667C21.2334 17.8667 20.6 18.1333 20 18.7333C19.5333 19.1667 19.2667 19.7667 19.1 20.4667V31.5C19.3334 31.7 19.6 31.8333 19.8667 31.9667C20.3667 32.2 20.8333 32.3 21.3333 32.3C22.4333 32.3 23.2667 31.6667 23.8 30.4333C24.3333 29.2 24.6 27.3 24.6 24.7667C24.6 23.0333 24.5 21.6667 24.3 20.6667ZM24.3 20.6667C24.1 19.6667 23.8 18.9333 23.3667 18.5C22.9667 18.0667 22.5 17.8667 21.9334 17.8667C21.2334 17.8667 20.6 18.1333 20 18.7333C19.5333 19.1667 19.2667 19.7667 19.1 20.4667V31.5C19.3334 31.7 19.6 31.8333 19.8667 31.9667C20.3667 32.2 20.8333 32.3 21.3333 32.3C22.4333 32.3 23.2667 31.6667 23.8 30.4333C24.3333 29.2 24.6 27.3 24.6 24.7667C24.6 23.0333 24.5 21.6667 24.3 20.6667ZM21 3.43333C11.3 3.43333 3.43335 11.3333 3.43335 21C3.43335 30.6667 11.3 38.5667 21 38.5667C30.7 38.5667 38.5667 30.7 38.5667 21C38.5667 11.3 30.7 3.43333 21 3.43333ZM28.2 29.3333C27.5667 30.6 26.7333 31.5 25.7 32.0667C24.6667 32.6333 23.5334 32.9 22.2667 32.9C21.4334 32.9 20.7 32.7667 20 32.4667C19.6333 32.3 19.2667 32.1 18.9334 31.8333C18.5 31.7667 18.0334 31.7667 17.6 31.8667C17.0667 31.9333 16.6 32.0667 16.1667 32.2667C15.7333 32.4667 15.3667 32.6667 15.0667 32.9333L14.6 32.6667C14.6667 32.4 14.7334 32.1 14.7667 31.8333C14.8 31.5667 14.8 31.2667 14.8 31V12.6C14.8 11.7 14.6667 11.0333 14.4 10.6C14.1333 10.1667 13.6333 9.96666 12.9 9.96666V9.33333C13.5333 9.4 14.1667 9.43333 14.7667 9.43333C15.6 9.43333 16.3667 9.4 17.1 9.33333C17.8334 9.26667 18.5333 9.16667 19.1333 9V19.3667C19.5 18.5333 20.0333 17.9 20.7333 17.4C21.6 16.8 22.6 16.5 23.7333 16.5C25.3 16.5 26.6 17.1333 27.6333 18.4C28.6667 19.6667 29.1667 21.6333 29.1667 24.2667C29.1333 26.4 28.8 28.0667 28.2 29.3333ZM23.3667 18.5C22.9667 18.0667 22.5 17.8667 21.9334 17.8667C21.2334 17.8667 20.6 18.1333 20 18.7333C19.5333 19.1667 19.2667 19.7667 19.1 20.4667V31.5C19.3334 31.7 19.6 31.8333 19.8667 31.9667C20.3667 32.2 20.8333 32.3 21.3333 32.3C22.4333 32.3 23.2667 31.6667 23.8 30.4333C24.3333 29.2 24.6 27.3 24.6 24.7667C24.6 23.0333 24.5 21.7 24.3 20.6667C24.0667 19.6333 23.7667 18.9333 23.3667 18.5ZM24.3 20.6667C24.1 19.6667 23.8 18.9333 23.3667 18.5C22.9667 18.0667 22.5 17.8667 21.9334 17.8667C21.2334 17.8667 20.6 18.1333 20 18.7333C19.5333 19.1667 19.2667 19.7667 19.1 20.4667V31.5C19.3334 31.7 19.6 31.8333 19.8667 31.9667C20.3667 32.2 20.8333 32.3 21.3333 32.3C22.4333 32.3 23.2667 31.6667 23.8 30.4333C24.3333 29.2 24.6 27.3 24.6 24.7667C24.6 23.0333 24.5 21.6667 24.3 20.6667ZM24.3 20.6667C24.1 19.6667 23.8 18.9333 23.3667 18.5C22.9667 18.0667 22.5 17.8667 21.9334 17.8667C21.2334 17.8667 20.6 18.1333 20 18.7333C19.5333 19.1667 19.2667 19.7667 19.1 20.4667V31.5C19.3334 31.7 19.6 31.8333 19.8667 31.9667C20.3667 32.2 20.8333 32.3 21.3333 32.3C22.4333 32.3 23.2667 31.6667 23.8 30.4333C24.3333 29.2 24.6 27.3 24.6 24.7667C24.6 23.0333 24.5 21.6667 24.3 20.6667ZM24.3 20.6667C24.1 19.6667 23.8 18.9333 23.3667 18.5C22.9667 18.0667 22.5 17.8667 21.9334 17.8667C21.2334 17.8667 20.6 18.1333 20 18.7333C19.5333 19.1667 19.2667 19.7667 19.1 20.4667V31.5C19.3334 31.7 19.6 31.8333 19.8667 31.9667C20.3667 32.2 20.8333 32.3 21.3333 32.3C22.4333 32.3 23.2667 31.6667 23.8 30.4333C24.3333 29.2 24.6 27.3 24.6 24.7667C24.6 23.0333 24.5 21.6667 24.3 20.6667ZM24.3 20.6667C24.1 19.6667 23.8 18.9333 23.3667 18.5C22.9667 18.0667 22.5 17.8667 21.9334 17.8667C21.2334 17.8667 20.6 18.1333 20 18.7333C19.5333 19.1667 19.2667 19.7667 19.1 20.4667V31.5C19.3334 31.7 19.6 31.8333 19.8667 31.9667C20.3667 32.2 20.8333 32.3 21.3333 32.3C22.4333 32.3 23.2667 31.6667 23.8 30.4333C24.3333 29.2 24.6 27.3 24.6 24.7667C24.6 23.0333 24.5 21.6667 24.3 20.6667ZM21 3.43333C11.3 3.43333 3.43335 11.3333 3.43335 21C3.43335 30.6667 11.3 38.5667 21 38.5667C30.7 38.5667 38.5667 30.7 38.5667 21C38.5667 11.3 30.7 3.43333 21 3.43333ZM28.2 29.3333C27.5667 30.6 26.7333 31.5 25.7 32.0667C24.6667 32.6333 23.5334 32.9 22.2667 32.9C21.4334 32.9 20.7 32.7667 20 32.4667C19.6333 32.3 19.2667 32.1 18.9334 31.8333C18.5 31.7667 18.0334 31.7667 17.6 31.8667C17.0667 31.9333 16.6 32.0667 16.1667 32.2667C15.7333 32.4667 15.3667 32.6667 15.0667 32.9333L14.6 32.6667C14.6667 32.4 14.7334 32.1 14.7667 31.8333C14.8 31.5667 14.8 31.2667 14.8 31V12.6C14.8 11.7 14.6667 11.0333 14.4 10.6C14.1333 10.1667 13.6333 9.96666 12.9 9.96666V9.33333C13.5333 9.4 14.1667 9.43333 14.7667 9.43333C15.6 9.43333 16.3667 9.4 17.1 9.33333C17.8334 9.26667 18.5333 9.16667 19.1333 9V19.3667C19.5 18.5333 20.0333 17.9 20.7333 17.4C21.6 16.8 22.6 16.5 23.7333 16.5C25.3 16.5 26.6 17.1333 27.6333 18.4C28.6667 19.6667 29.1667 21.6333 29.1667 24.2667C29.1333 26.4 28.8 28.0667 28.2 29.3333ZM23.3667 18.5C22.9667 18.0667 22.5 17.8667 21.9334 17.8667C21.2334 17.8667 20.6 18.1333 20 18.7333C19.5333 19.1667 19.2667 19.7667 19.1 20.4667V31.5C19.3334 31.7 19.6 31.8333 19.8667 31.9667C20.3667 32.2 20.8333 32.3 21.3333 32.3C22.4333 32.3 23.2667 31.6667 23.8 30.4333C24.3333 29.2 24.6 27.3 24.6 24.7667C24.6 23.0333 24.5 21.7 24.3 20.6667C24.0667 19.6333 23.7667 18.9333 23.3667 18.5ZM24.3 20.6667C24.1 19.6667 23.8 18.9333 23.3667 18.5C22.9667 18.0667 22.5 17.8667 21.9334 17.8667C21.2334 17.8667 20.6 18.1333 20 18.7333C19.5333 19.1667 19.2667 19.7667 19.1 20.4667V31.5C19.3334 31.7 19.6 31.8333 19.8667 31.9667C20.3667 32.2 20.8333 32.3 21.3333 32.3C22.4333 32.3 23.2667 31.6667 23.8 30.4333C24.3333 29.2 24.6 27.3 24.6 24.7667C24.6 23.0333 24.5 21.6667 24.3 20.6667ZM24.3 20.6667C24.1 19.6667 23.8 18.9333 23.3667 18.5C22.9667 18.0667 22.5 17.8667 21.9334 17.8667C21.2334 17.8667 20.6 18.1333 20 18.7333C19.5333 19.1667 19.2667 19.7667 19.1 20.4667V31.5C19.3334 31.7 19.6 31.8333 19.8667 31.9667C20.3667 32.2 20.8333 32.3 21.3333 32.3C22.4333 32.3 23.2667 31.6667 23.8 30.4333C24.3333 29.2 24.6 27.3 24.6 24.7667C24.6 23.0333 24.5 21.6667 24.3 20.6667ZM24.3 20.6667C24.1 19.6667 23.8 18.9333 23.3667 18.5C22.9667 18.0667 22.5 17.8667 21.9334 17.8667C21.2334 17.8667 20.6 18.1333 20 18.7333C19.5333 19.1667 19.2667 19.7667 19.1 20.4667V31.5C19.3334 31.7 19.6 31.8333 19.8667 31.9667C20.3667 32.2 20.8333 32.3 21.3333 32.3C22.4333 32.3 23.2667 31.6667 23.8 30.4333C24.3333 29.2 24.6 27.3 24.6 24.7667C24.6 23.0333 24.5 21.6667 24.3 20.6667ZM24.3 20.6667C24.1 19.6667 23.8 18.9333 23.3667 18.5C22.9667 18.0667 22.5 17.8667 21.9334 17.8667C21.2334 17.8667 20.6 18.1333 20 18.7333C19.5333 19.1667 19.2667 19.7667 19.1 20.4667V31.5C19.3334 31.7 19.6 31.8333 19.8667 31.9667C20.3667 32.2 20.8333 32.3 21.3333 32.3C22.4333 32.3 23.2667 31.6667 23.8 30.4333C24.3333 29.2 24.6 27.3 24.6 24.7667C24.6 23.0333 24.5 21.6667 24.3 20.6667ZM21 3.43333C11.3 3.43333 3.43335 11.3333 3.43335 21C3.43335 30.6667 11.3 38.5667 21 38.5667C30.7 38.5667 38.5667 30.7 38.5667 21C38.5667 11.3 30.7 3.43333 21 3.43333ZM28.2 29.3333C27.5667 30.6 26.7333 31.5 25.7 32.0667C24.6667 32.6333 23.5334 32.9 22.2667 32.9C21.4334 32.9 20.7 32.7667 20 32.4667C19.6333 32.3 19.2667 32.1 18.9334 31.8333C18.5 31.7667 18.0334 31.7667 17.6 31.8667C17.0667 31.9333 16.6 32.0667 16.1667 32.2667C15.7333 32.4667 15.3667 32.6667 15.0667 32.9333L14.6 32.6667C14.6667 32.4 14.7334 32.1 14.7667 31.8333C14.8 31.5667 14.8 31.2667 14.8 31V12.6C14.8 11.7 14.6667 11.0333 14.4 10.6C14.1333 10.1667 13.6333 9.96666 12.9 9.96666V9.33333C13.5333 9.4 14.1667 9.43333 14.7667 9.43333C15.6 9.43333 16.3667 9.4 17.1 9.33333C17.8334 9.26667 18.5333 9.16667 19.1333 9V19.3667C19.5 18.5333 20.0333 17.9 20.7333 17.4C21.6 16.8 22.6 16.5 23.7333 16.5C25.3 16.5 26.6 17.1333 27.6333 18.4C28.6667 19.6667 29.1667 21.6333 29.1667 24.2667C29.1333 26.4 28.8 28.0667 28.2 29.3333ZM23.3667 18.5C22.9667 18.0667 22.5 17.8667 21.9334 17.8667C21.2334 17.8667 20.6 18.1333 20 18.7333C19.5333 19.1667 19.2667 19.7667 19.1 20.4667V31.5C19.3334 31.7 19.6 31.8333 19.8667 31.9667C20.3667 32.2 20.8333 32.3 21.3333 32.3C22.4333 32.3 23.2667 31.6667 23.8 30.4333C24.3333 29.2 24.6 27.3 24.6 24.7667C24.6 23.0333 24.5 21.7 24.3 20.6667C24.0667 19.6333 23.7667 18.9333 23.3667 18.5ZM21 3.43333C11.3 3.43333 3.43335 11.3333 3.43335 21C3.43335 30.6667 11.3 38.5667 21 38.5667C30.7 38.5667 38.5667 30.7 38.5667 21C38.5667 11.3 30.7 3.43333 21 3.43333ZM28.2 29.3333C27.5667 30.6 26.7333 31.5 25.7 32.0667C24.6667 32.6333 23.5334 32.9 22.2667 32.9C21.4334 32.9 20.7 32.7667 20 32.4667C19.6333 32.3 19.2667 32.1 18.9334 31.8333C18.5 31.7667 18.0334 31.7667 17.6 31.8667C17.0667 31.9333 16.6 32.0667 16.1667 32.2667C15.7333 32.4667 15.3667 32.6667 15.0667 32.9333L14.6 32.6667C14.6667 32.4 14.7334 32.1 14.7667 31.8333C14.8 31.5667 14.8 31.2667 14.8 31V12.6C14.8 11.7 14.6667 11.0333 14.4 10.6C14.1333 10.1667 13.6333 9.96666 12.9 9.96666V9.33333C13.5333 9.4 14.1667 9.43333 14.7667 9.43333C15.6 9.43333 16.3667 9.4 17.1 9.33333C17.8334 9.26667 18.5333 9.16667 19.1333 9V19.3667C19.5 18.5333 20.0333 17.9 20.7333 17.4C21.6 16.8 22.6 16.5 23.7333 16.5C25.3 16.5 26.6 17.1333 27.6333 18.4C28.6667 19.6667 29.1667 21.6333 29.1667 24.2667C29.1333 26.4 28.8 28.0667 28.2 29.3333ZM23.3667 18.5C22.9667 18.0667 22.5 17.8667 21.9334 17.8667C21.2334 17.8667 20.6 18.1333 20 18.7333C19.5333 19.1667 19.2667 19.7667 19.1 20.4667V31.5C19.3334 31.7 19.6 31.8333 19.8667 31.9667C20.3667 32.2 20.8333 32.3 21.3333 32.3C22.4333 32.3 23.2667 31.6667 23.8 30.4333C24.3333 29.2 24.6 27.3 24.6 24.7667C24.6 23.0333 24.5 21.7 24.3 20.6667C24.0667 19.6333 23.7667 18.9333 23.3667 18.5ZM21 1C9.96667 1 1 9.96667 1 21C1 32.0333 9.96667 41 21 41C32.0333 41 41 32.0333 41 21C41 9.96667 32.0333 1 21 1ZM21 39.5C10.8 39.5 2.5 31.2 2.5 21C2.5 10.8 10.8 2.5 21 2.5C31.2 2.5 39.5 10.8 39.5 21C39.5 31.2 31.2 39.5 21 39.5ZM21 3.43333C11.3 3.43333 3.43335 11.3333 3.43335 21C3.43335 30.6667 11.3 38.5667 21 38.5667C30.7 38.5667 38.5667 30.7 38.5667 21C38.5667 11.3 30.7 3.43333 21 3.43333ZM28.2 29.3333C27.5667 30.6 26.7333 31.5 25.7 32.0667C24.6667 32.6333 23.5334 32.9 22.2667 32.9C21.4334 32.9 20.7 32.7667 20 32.4667C19.6333 32.3 19.2667 32.1 18.9334 31.8333C18.5 31.7667 18.0334 31.7667 17.6 31.8667C17.0667 31.9333 16.6 32.0667 16.1667 32.2667C15.7333 32.4667 15.3667 32.6667 15.0667 32.9333L14.6 32.6667C14.6667 32.4 14.7334 32.1 14.7667 31.8333C14.8 31.5667 14.8 31.2667 14.8 31V12.6C14.8 11.7 14.6667 11.0333 14.4 10.6C14.1333 10.1667 13.6333 9.96666 12.9 9.96666V9.33333C13.5333 9.4 14.1667 9.43333 14.7667 9.43333C15.6 9.43333 16.3667 9.4 17.1 9.33333C17.8334 9.26667 18.5333 9.16667 19.1333 9V19.3667C19.5 18.5333 20.0333 17.9 20.7333 17.4C21.6 16.8 22.6 16.5 23.7333 16.5C25.3 16.5 26.6 17.1333 27.6333 18.4C28.6667 19.6667 29.1667 21.6333 29.1667 24.2667C29.1333 26.4 28.8 28.0667 28.2 29.3333ZM23.3667 18.5C22.9667 18.0667 22.5 17.8667 21.9334 17.8667C21.2334 17.8667 20.6 18.1333 20 18.7333C19.5333 19.1667 19.2667 19.7667 19.1 20.4667V31.5C19.3334 31.7 19.6 31.8333 19.8667 31.9667C20.3667 32.2 20.8333 32.3 21.3333 32.3C22.4333 32.3 23.2667 31.6667 23.8 30.4333C24.3333 29.2 24.6 27.3 24.6 24.7667C24.6 23.0333 24.5 21.7 24.3 20.6667C24.0667 19.6333 23.7667 18.9333 23.3667 18.5ZM24.3 20.6667C24.1 19.6667 23.8 18.9333 23.3667 18.5C22.9667 18.0667 22.5 17.8667 21.9334 17.8667C21.2334 17.8667 20.6 18.1333 20 18.7333C19.5333 19.1667 19.2667 19.7667 19.1 20.4667V31.5C19.3334 31.7 19.6 31.8333 19.8667 31.9667C20.3667 32.2 20.8333 32.3 21.3333 32.3C22.4333 32.3 23.2667 31.6667 23.8 30.4333C24.3333 29.2 24.6 27.3 24.6 24.7667C24.6 23.0333 24.5 21.6667 24.3 20.6667ZM24.3 20.6667C24.1 19.6667 23.8 18.9333 23.3667 18.5C22.9667 18.0667 22.5 17.8667 21.9334 17.8667C21.2334 17.8667 20.6 18.1333 20 18.7333C19.5333 19.1667 19.2667 19.7667 19.1 20.4667V31.5C19.3334 31.7 19.6 31.8333 19.8667 31.9667C20.3667 32.2 20.8333 32.3 21.3333 32.3C22.4333 32.3 23.2667 31.6667 23.8 30.4333C24.3333 29.2 24.6 27.3 24.6 24.7667C24.6 23.0333 24.5 21.6667 24.3 20.6667ZM21 3.43333C11.3 3.43333 3.43335 11.3333 3.43335 21C3.43335 30.6667 11.3 38.5667 21 38.5667C30.7 38.5667 38.5667 30.7 38.5667 21C38.5667 11.3 30.7 3.43333 21 3.43333ZM28.2 29.3333C27.5667 30.6 26.7333 31.5 25.7 32.0667C24.6667 32.6333 23.5334 32.9 22.2667 32.9C21.4334 32.9 20.7 32.7667 20 32.4667C19.6333 32.3 19.2667 32.1 18.9334 31.8333C18.5 31.7667 18.0334 31.7667 17.6 31.8667C17.0667 31.9333 16.6 32.0667 16.1667 32.2667C15.7333 32.4667 15.3667 32.6667 15.0667 32.9333L14.6 32.6667C14.6667 32.4 14.7334 32.1 14.7667 31.8333C14.8 31.5667 14.8 31.2667 14.8 31V12.6C14.8 11.7 14.6667 11.0333 14.4 10.6C14.1333 10.1667 13.6333 9.96666 12.9 9.96666V9.33333C13.5333 9.4 14.1667 9.43333 14.7667 9.43333C15.6 9.43333 16.3667 9.4 17.1 9.33333C17.8334 9.26667 18.5333 9.16667 19.1333 9V19.3667C19.5 18.5333 20.0333 17.9 20.7333 17.4C21.6 16.8 22.6 16.5 23.7333 16.5C25.3 16.5 26.6 17.1333 27.6333 18.4C28.6667 19.6667 29.1667 21.6333 29.1667 24.2667C29.1333 26.4 28.8 28.0667 28.2 29.3333ZM23.3667 18.5C22.9667 18.0667 22.5 17.8667 21.9334 17.8667C21.2334 17.8667 20.6 18.1333 20 18.7333C19.5333 19.1667 19.2667 19.7667 19.1 20.4667V31.5C19.3334 31.7 19.6 31.8333 19.8667 31.9667C20.3667 32.2 20.8333 32.3 21.3333 32.3C22.4333 32.3 23.2667 31.6667 23.8 30.4333C24.3333 29.2 24.6 27.3 24.6 24.7667C24.6 23.0333 24.5 21.7 24.3 20.6667C24.0667 19.6333 23.7667 18.9333 23.3667 18.5ZM24.3 20.6667C24.1 19.6667 23.8 18.9333 23.3667 18.5C22.9667 18.0667 22.5 17.8667 21.9334 17.8667C21.2334 17.8667 20.6 18.1333 20 18.7333C19.5333 19.1667 19.2667 19.7667 19.1 20.4667V31.5C19.3334 31.7 19.6 31.8333 19.8667 31.9667C20.3667 32.2 20.8333 32.3 21.3333 32.3C22.4333 32.3 23.2667 31.6667 23.8 30.4333C24.3333 29.2 24.6 27.3 24.6 24.7667C24.6 23.0333 24.5 21.6667 24.3 20.6667ZM24.3 20.6667C24.1 19.6667 23.8 18.9333 23.3667 18.5C22.9667 18.0667 22.5 17.8667 21.9334 17.8667C21.2334 17.8667 20.6 18.1333 20 18.7333C19.5333 19.1667 19.2667 19.7667 19.1 20.4667V31.5C19.3334 31.7 19.6 31.8333 19.8667 31.9667C20.3667 32.2 20.8333 32.3 21.3333 32.3C22.4333 32.3 23.2667 31.6667 23.8 30.4333C24.3333 29.2 24.6 27.3 24.6 24.7667C24.6 23.0333 24.5 21.6667 24.3 20.6667ZM21 3.43333C11.3 3.43333 3.43335 11.3333 3.43335 21C3.43335 30.6667 11.3 38.5667 21 38.5667C30.7 38.5667 38.5667 30.7 38.5667 21C38.5667 11.3 30.7 3.43333 21 3.43333ZM28.2 29.3333C27.5667 30.6 26.7333 31.5 25.7 32.0667C24.6667 32.6333 23.5334 32.9 22.2667 32.9C21.4334 32.9 20.7 32.7667 20 32.4667C19.6333 32.3 19.2667 32.1 18.9334 31.8333C18.5 31.7667 18.0334 31.7667 17.6 31.8667C17.0667 31.9333 16.6 32.0667 16.1667 32.2667C15.7333 32.4667 15.3667 32.6667 15.0667 32.9333L14.6 32.6667C14.6667 32.4 14.7334 32.1 14.7667 31.8333C14.8 31.5667 14.8 31.2667 14.8 31V12.6C14.8 11.7 14.6667 11.0333 14.4 10.6C14.1333 10.1667 13.6333 9.96666 12.9 9.96666V9.33333C13.5333 9.4 14.1667 9.43333 14.7667 9.43333C15.6 9.43333 16.3667 9.4 17.1 9.33333C17.8334 9.26667 18.5333 9.16667 19.1333 9V19.3667C19.5 18.5333 20.0333 17.9 20.7333 17.4C21.6 16.8 22.6 16.5 23.7333 16.5C25.3 16.5 26.6 17.1333 27.6333 18.4C28.6667 19.6667 29.1667 21.6333 29.1667 24.2667C29.1333 26.4 28.8 28.0667 28.2 29.3333ZM23.3667 18.5C22.9667 18.0667 22.5 17.8667 21.9334 17.8667C21.2334 17.8667 20.6 18.1333 20 18.7333C19.5333 19.1667 19.2667 19.7667 19.1 20.4667V31.5C19.3334 31.7 19.6 31.8333 19.8667 31.9667C20.3667 32.2 20.8333 32.3 21.3333 32.3C22.4333 32.3 23.2667 31.6667 23.8 30.4333C24.3333 29.2 24.6 27.3 24.6 24.7667C24.6 23.0333 24.5 21.7 24.3 20.6667C24.0667 19.6333 23.7667 18.9333 23.3667 18.5ZM24.3 20.6667C24.1 19.6667 23.8 18.9333 23.3667 18.5C22.9667 18.0667 22.5 17.8667 21.9334 17.8667C21.2334 17.8667 20.6 18.1333 20 18.7333C19.5333 19.1667 19.2667 19.7667 19.1 20.4667V31.5C19.3334 31.7 19.6 31.8333 19.8667 31.9667C20.3667 32.2 20.8333 32.3 21.3333 32.3C22.4333 32.3 23.2667 31.6667 23.8 30.4333C24.3333 29.2 24.6 27.3 24.6 24.7667C24.6 23.0333 24.5 21.6667 24.3 20.6667ZM24.3 20.6667C24.1 19.6667 23.8 18.9333 23.3667 18.5C22.9667 18.0667 22.5 17.8667 21.9334 17.8667C21.2334 17.8667 20.6 18.1333 20 18.7333C19.5333 19.1667 19.2667 19.7667 19.1 20.4667V31.5C19.3334 31.7 19.6 31.8333 19.8667 31.9667C20.3667 32.2 20.8333 32.3 21.3333 32.3C22.4333 32.3 23.2667 31.6667 23.8 30.4333C24.3333 29.2 24.6 27.3 24.6 24.7667C24.6 23.0333 24.5 21.6667 24.3 20.6667ZM24.3 20.6667C24.1 19.6667 23.8 18.9333 23.3667 18.5C22.9667 18.0667 22.5 17.8667 21.9334 17.8667C21.2334 17.8667 20.6 18.1333 20 18.7333C19.5333 19.1667 19.2667 19.7667 19.1 20.4667V31.5C19.3334 31.7 19.6 31.8333 19.8667 31.9667C20.3667 32.2 20.8333 32.3 21.3333 32.3C22.4333 32.3 23.2667 31.6667 23.8 30.4333C24.3333 29.2 24.6 27.3 24.6 24.7667C24.6 23.0333 24.5 21.6667 24.3 20.6667ZM24.3 20.6667C24.1 19.6667 23.8 18.9333 23.3667 18.5C22.9667 18.0667 22.5 17.8667 21.9334 17.8667C21.2334 17.8667 20.6 18.1333 20 18.7333C19.5333 19.1667 19.2667 19.7667 19.1 20.4667V31.5C19.3334 31.7 19.6 31.8333 19.8667 31.9667C20.3667 32.2 20.8333 32.3 21.3333 32.3C22.4333 32.3 23.2667 31.6667 23.8 30.4333C24.3333 29.2 24.6 27.3 24.6 24.7667C24.6 23.0333 24.5 21.6667 24.3 20.6667Z" fill="#222125"/>
</svg>
