<svg width="151" height="40" viewBox="0 0 151 40" fill="none" xmlns="http://www.w3.org/2000/svg">
<rect width="151" height="40" fill="white"/>
<path d="M10.2571 0V37.5C9.43654 37.3359 8.61599 37.3359 7.71337 37.5C6.8928 37.6641 6.07221 37.8282 5.3337 38.1564C4.59518 38.4847 4.02083 38.8129 3.52849 39.2232L2.78995 38.8129C2.95407 38.3206 3.03611 37.9103 3.03611 37.4179C3.11817 36.9256 3.1182 36.5153 3.1182 36.023V5.82604C3.1182 4.34902 2.87199 3.28228 2.46171 2.54377C2.05142 1.80526 1.1488 1.47701 0 1.47701V0.410284C1.06674 0.492341 2.05143 0.574383 3.03611 0.574383C4.34902 0.574383 5.66194 0.492341 6.8928 0.410284C8.12365 0.410284 9.19037 0.246171 10.2571 0ZM17.8064 12.3906C20.3501 12.3906 22.4836 13.4573 24.2068 15.5087C25.93 17.5602 26.7506 20.8425 26.7506 25.1094C26.7506 28.5558 26.2582 31.2637 25.1915 33.3151C24.1247 35.3665 22.8118 36.8435 21.0886 37.8282C19.3654 38.8129 17.4781 39.2232 15.5088 39.2232C14.1959 39.2232 12.883 38.977 11.7342 38.5667C10.5854 38.0744 9.60066 37.3359 8.78009 36.2691L9.43654 36.023C10.0109 36.7615 10.7495 37.2538 11.57 37.6641C12.3906 37.9923 13.1291 38.2385 13.9497 38.2385C15.7549 38.2385 17.0678 37.2538 17.9705 35.2024C18.8731 33.151 19.2834 30.0328 19.2834 25.93C19.2834 23.14 19.1193 20.8424 18.791 19.2013C18.4628 17.5602 17.9705 16.3293 17.314 15.6729C16.6576 14.9344 15.837 14.6061 14.9344 14.6061C13.7856 14.6061 12.7188 15.0985 11.8162 16.0011C10.8315 16.9037 10.3392 18.2166 10.1751 19.9398L9.92891 18.2166C10.5033 16.3293 11.488 14.9344 12.965 13.9497C14.2779 12.8829 15.919 12.3906 17.8064 12.3906ZM53.2549 12.5547V33.151C53.2549 34.628 53.5011 35.6947 53.9114 36.4332C54.4037 37.1718 55.2243 37.5 56.3731 37.5V38.5667C55.3884 38.4847 54.3216 38.4026 53.337 38.4026C51.942 38.4026 50.7112 38.4847 49.4803 38.5667C48.2495 38.6488 47.1827 38.8129 46.116 39.1411V34.71C45.2954 36.3512 44.2287 37.5 42.8337 38.2385C41.4387 38.977 39.8796 39.3052 38.1564 39.3052C36.7615 39.3052 35.6948 39.1411 34.7921 38.7308C33.9716 38.4026 33.2331 37.9103 32.7407 37.3359C32.1663 36.6794 31.756 35.8589 31.5919 34.8742C31.3457 33.8895 31.2637 32.5766 31.2637 30.9354V18.4628C31.2637 16.9858 31.0175 15.919 30.6073 15.1805C30.197 14.442 29.2943 14.1138 28.1455 14.1138V13.047C29.2123 13.1291 30.1969 13.2112 31.1816 13.2112C32.5766 13.2112 33.8074 13.1291 35.0383 13.047C36.2691 12.965 37.3359 12.8009 38.3206 12.5547V32.9048C38.3206 33.7254 38.4026 34.4639 38.5667 35.0383C38.7308 35.6947 38.977 36.1871 39.4694 36.5153C39.8797 36.8435 40.5361 37.0077 41.3567 37.0077C42.2593 37.0077 42.9978 36.7615 43.7364 36.2691C44.4749 35.7768 45.0492 35.1203 45.4595 34.2177C45.8698 33.3151 46.116 32.4125 46.116 31.2637V18.3807C46.116 16.9037 45.8698 15.837 45.4595 15.0985C45.0492 14.3599 44.1466 14.0317 42.9978 14.0317V13.047C44.0646 13.1291 45.0493 13.2112 46.0339 13.2112C47.4289 13.2112 48.6598 13.1291 49.8906 13.047C51.1215 12.965 52.2702 12.8009 53.2549 12.5547ZM75.2462 12.3906C76.3129 12.3906 77.1335 12.6368 77.79 13.047C78.4464 13.4573 78.9387 14.0317 79.267 14.7702C79.5952 15.4267 79.7593 16.1652 79.7593 16.9037C79.7593 18.1346 79.4311 19.1192 78.6926 19.8577C77.954 20.5963 77.0514 21.0066 75.9026 21.0066C74.7538 21.0066 73.8512 20.7604 73.1947 20.186C72.5383 19.6116 72.21 18.8731 72.21 17.8884C72.21 16.9858 72.3742 16.2473 72.8665 15.5908C73.3589 14.9344 73.7691 14.442 74.4256 14.0317C73.9332 13.8676 73.523 13.9497 73.0306 14.1138C72.3742 14.1958 71.7998 14.442 71.2254 14.8523C70.651 15.2626 70.1587 15.7549 69.8304 16.4114C69.4201 16.9858 69.0919 17.6422 68.9278 18.3807C68.6816 19.1192 68.5996 19.7757 68.5996 20.4322V33.4792C68.5996 35.0383 69.0098 36.105 69.7483 36.6794C70.4868 37.2538 71.6357 37.5 73.1947 37.5V38.5667C72.4562 38.5667 71.3074 38.4847 69.9125 38.4847C68.4354 38.4026 66.9584 38.4026 65.3993 38.4026C64.0864 38.4026 62.7735 38.4026 61.3786 38.4847C60.0657 38.5667 58.9989 38.5667 58.3425 38.5667V37.5C59.4913 37.5 60.3118 37.2538 60.8042 36.7615C61.2965 36.2691 61.5427 35.3665 61.5427 33.9715V18.4628C61.5427 16.9858 61.2965 15.919 60.8862 15.1805C60.4759 14.442 59.5733 14.1138 58.4245 14.1138V13.047C59.4912 13.1291 60.4759 13.2112 61.4606 13.2112C62.8556 13.2112 64.0864 13.1291 65.3173 13.047C66.5482 12.965 67.6149 12.8009 68.5996 12.5547V17.1499C69.0099 16.2473 69.5022 15.4267 70.1586 14.7702C70.8151 14.0317 71.5536 13.4573 72.4563 13.047C73.2768 12.6368 74.1794 12.3906 75.2462 12.3906ZM90.3446 12.3906C91.7396 12.3906 92.9704 12.5547 93.9551 12.8829C95.0219 13.2111 95.7604 13.5394 96.1707 13.8676C97.3195 14.6061 97.9759 14.1138 98.2221 12.3906H99.2888C99.2068 13.2932 99.2068 14.442 99.1247 15.7549C99.0427 17.0678 99.0426 18.8731 99.0426 21.0066H97.9759C97.8118 19.7757 97.4836 18.6269 97.0733 17.396C96.581 16.2472 95.9245 15.2626 95.1039 14.5241C94.2013 13.7855 93.1346 13.3753 91.7396 13.3753C90.7549 13.3753 90.0164 13.6214 89.3599 14.1958C88.7035 14.7702 88.3753 15.5088 88.3753 16.4934C88.3753 17.4781 88.7035 18.2987 89.2779 19.1192C89.8523 19.8578 90.5908 20.5963 91.5755 21.2527C92.4781 21.9092 93.4628 22.6477 94.5295 23.3862C95.5963 24.2068 96.581 25.0273 97.4836 25.8479C98.3862 26.6685 99.0427 27.489 99.6171 28.4737C100.109 29.4584 100.438 30.5251 100.438 31.8381C100.438 33.3151 100.027 34.628 99.1247 35.6947C98.3042 36.7615 97.1553 37.6641 95.7604 38.2385C94.3654 38.8129 92.8063 39.1411 91.0831 39.1411C90.0984 39.1411 89.1959 39.0591 88.4573 38.8129C87.7188 38.6488 86.9803 38.4026 86.488 38.0744C86.0777 37.9103 85.6674 37.6641 85.2571 37.5C84.8468 37.3359 84.5186 37.1718 84.1904 37.0077C83.8621 36.9256 83.5339 37.0077 83.3698 37.3359C83.1236 37.6641 82.9595 38.1564 82.7954 38.7308H81.7287C81.8107 37.6641 81.8107 36.4333 81.8928 34.8742C81.9749 33.3151 81.9748 31.3457 81.9748 28.884H83.0416C83.2057 30.6893 83.6159 32.2483 84.1083 33.5613C84.6006 34.9562 85.3392 36.023 86.2418 36.7615C87.1444 37.5 88.2932 37.9103 89.6882 37.9103C90.2626 37.9103 90.7549 37.8282 91.3293 37.582C91.8217 37.3359 92.314 37.0076 92.6422 36.4332C92.9705 35.9409 93.1345 35.2024 93.1345 34.3818C93.1345 32.9048 92.6422 31.756 91.7396 30.7713C90.837 29.7866 89.6061 28.8019 88.2111 27.6532C87.1444 26.8326 86.1597 25.93 85.2571 25.1094C84.3545 24.2888 83.5339 23.3862 82.9595 22.3195C82.3851 21.3348 82.0569 20.186 82.0569 18.8731C82.0569 17.3961 82.4672 16.1652 83.2057 15.0985C84.0263 14.1138 85.0109 13.2932 86.3238 12.8009C87.4726 12.6368 88.8676 12.3906 90.3446 12.3906ZM110.12 38.895C108.643 38.895 107.412 38.6488 106.428 38.0744C105.443 37.5 104.705 36.7615 104.294 35.8588C103.802 34.9562 103.638 33.8895 103.638 32.7407C103.638 31.3457 103.966 30.1969 104.623 29.2943C105.279 28.3917 106.1 27.6532 107.084 27.1608C108.069 26.5864 109.218 26.1761 110.284 25.7659C111.433 25.4376 112.5 25.0274 113.567 24.6991C114.633 24.3709 115.454 23.9606 116.11 23.4683C116.767 22.9759 117.095 22.4015 117.095 21.663V17.8063C117.095 16.9858 116.931 16.1652 116.685 15.5087C116.439 14.8523 115.946 14.2779 115.372 13.9497C114.798 13.6214 114.059 13.3753 113.156 13.3753C112.5 13.3753 111.844 13.4573 111.187 13.6214C110.531 13.7856 109.956 14.1138 109.546 14.5241C110.449 14.8523 111.187 15.3446 111.679 16.0011C112.172 16.6575 112.418 17.4781 112.418 18.2987C112.418 19.4475 112.008 20.268 111.269 20.9245C110.531 21.581 109.546 21.9092 108.561 21.9092C107.412 21.9092 106.51 21.581 105.853 20.8424C105.279 20.1039 104.951 19.2013 104.951 18.1346C104.951 17.1499 105.197 16.4114 105.689 15.7549C106.182 15.0984 106.838 14.5241 107.659 13.9497C108.561 13.4573 109.71 13.047 110.941 12.7188C112.254 12.3906 113.649 12.3085 115.126 12.3085C116.603 12.3085 117.998 12.4726 119.229 12.8009C120.46 13.1291 121.444 13.7035 122.265 14.5241C123.003 15.2626 123.496 16.1652 123.742 17.314C123.988 18.3807 124.07 19.7757 124.07 21.4989V34.8742C124.07 35.6947 124.152 36.2691 124.316 36.5974C124.48 36.9256 124.726 37.0897 125.137 37.0897C125.465 37.0897 125.711 37.0076 125.957 36.8435C126.203 36.6794 126.532 36.5153 126.86 36.2691L127.352 37.0897C126.696 37.6641 125.875 38.1564 124.973 38.4847C124.07 38.8129 123.085 38.977 121.937 38.977C120.706 38.977 119.721 38.8129 119.065 38.4847C118.408 38.1564 117.834 37.6641 117.505 37.0897C117.177 36.5153 117.013 35.7768 117.013 35.0383C116.193 36.2691 115.29 37.2538 114.141 37.9923C113.074 38.5667 111.761 38.895 110.12 38.895ZM113.649 35.6947C114.305 35.6947 114.88 35.5306 115.454 35.2024C116.028 34.8742 116.521 34.3818 117.013 33.6433V23.5503C116.685 24.0426 116.275 24.4529 115.782 24.8632C115.29 25.2735 114.716 25.6838 114.141 26.0941C113.567 26.5044 112.992 26.9147 112.418 27.4891C111.844 27.9814 111.433 28.5558 111.105 29.2943C110.777 30.0328 110.613 30.8534 110.613 31.9201C110.613 33.233 110.859 34.1357 111.433 34.7921C112.008 35.4486 112.664 35.6947 113.649 35.6947ZM145.487 12.3906C146.554 12.3906 147.374 12.6368 148.031 13.047C148.687 13.4573 149.179 14.0317 149.508 14.7702C149.836 15.4267 150 16.1652 150 16.9037C150 18.1346 149.672 19.1192 148.933 19.8577C148.195 20.5963 147.292 21.0066 146.143 21.0066C144.995 21.0066 144.092 20.7604 143.435 20.186C142.779 19.6116 142.451 18.8731 142.451 17.8884C142.451 16.9858 142.615 16.2473 143.107 15.5908C143.517 15.0164 144.01 14.442 144.666 14.0317C144.174 13.8676 143.764 13.9497 143.271 14.1138C142.615 14.1958 142.04 14.442 141.466 14.8523C140.892 15.2626 140.399 15.7549 140.071 16.4114C139.661 16.9858 139.333 17.6422 139.168 18.3807C138.922 19.1192 138.84 19.7757 138.84 20.4322V33.4792C138.84 35.0383 139.251 36.105 139.989 36.6794C140.728 37.2538 141.876 37.5 143.435 37.5V38.5667C142.697 38.5667 141.548 38.4847 140.153 38.4847C138.676 38.4026 137.199 38.4026 135.64 38.4026C134.327 38.4026 133.014 38.4026 131.619 38.4847C130.306 38.5667 129.24 38.5667 128.583 38.5667V37.5C129.732 37.5 130.552 37.2538 131.045 36.7615C131.537 36.2691 131.783 35.3665 131.783 33.9715V18.4628C131.783 16.9858 131.537 15.919 131.127 15.1805C130.717 14.442 129.814 14.1138 128.665 14.1138V13.047C129.732 13.1291 130.717 13.2112 131.701 13.2112C133.096 13.2112 134.327 13.1291 135.558 13.047C136.789 12.965 137.856 12.8009 138.84 12.5547V17.1499C139.251 16.2473 139.743 15.4267 140.399 14.7702C141.056 14.0317 141.794 13.4573 142.697 13.047C143.6 12.6368 144.502 12.3906 145.487 12.3906Z" fill="url(#paint0_linear_135_571)"/>
<path d="M18.067 2.57998C18.613 2.57998 19.0995 2.69898 19.5265 2.93698C19.9605 3.17498 20.3 3.51098 20.545 3.94498C20.79 4.37898 20.9125 4.87948 20.9125 5.44648C20.9125 6.01348 20.79 6.51748 20.545 6.95848C20.3 7.39248 19.9605 7.72848 19.5265 7.96648C19.0995 8.20448 18.613 8.32349 18.067 8.32349C17.311 8.32349 16.7125 8.07148 16.2715 7.56748V10.287H14.959V2.64298H16.2085V3.37798C16.4255 3.11198 16.6915 2.91248 17.0065 2.77948C17.3285 2.64648 17.682 2.57998 18.067 2.57998ZM17.92 7.19999C18.403 7.19999 18.7985 7.03899 19.1065 6.71698C19.4215 6.39499 19.579 5.97148 19.579 5.44648C19.579 4.92148 19.4215 4.49798 19.1065 4.17598C18.7985 3.85398 18.403 3.69298 17.92 3.69298C17.605 3.69298 17.3215 3.76648 17.0695 3.91348C16.8175 4.05348 16.618 4.25648 16.471 4.52248C16.324 4.78848 16.2505 5.09648 16.2505 5.44648C16.2505 5.79648 16.324 6.10448 16.471 6.37048C16.618 6.63648 16.8175 6.84298 17.0695 6.98998C17.3215 7.12998 17.605 7.19999 17.92 7.19999Z" fill="#6C5CE7"/>
<path d="M24.6772 8.32349C24.1102 8.32349 23.5992 8.20098 23.1442 7.95598C22.6892 7.71098 22.3322 7.37148 22.0732 6.93748C21.8212 6.49648 21.6952 5.99948 21.6952 5.44648C21.6952 4.89348 21.8212 4.39998 22.0732 3.96598C22.3322 3.53198 22.6892 3.19248 23.1442 2.94748C23.5992 2.70248 24.1102 2.57998 24.6772 2.57998C25.2512 2.57998 25.7657 2.70248 26.2207 2.94748C26.6757 3.19248 27.0292 3.53198 27.2812 3.96598C27.5402 4.39998 27.6697 4.89348 27.6697 5.44648C27.6697 5.99948 27.5402 6.49648 27.2812 6.93748C27.0292 7.37148 26.6757 7.71098 26.2207 7.95598C25.7657 8.20098 25.2512 8.32349 24.6772 8.32349ZM24.6772 7.19999C25.1602 7.19999 25.5592 7.03899 25.8742 6.71698C26.1892 6.39499 26.3467 5.97148 26.3467 5.44648C26.3467 4.92148 26.1892 4.49798 25.8742 4.17598C25.5592 3.85398 25.1602 3.69298 24.6772 3.69298C24.1942 3.69298 23.7952 3.85398 23.4802 4.17598C23.1722 4.49798 23.0182 4.92148 23.0182 5.44648C23.0182 5.97148 23.1722 6.39499 23.4802 6.71698C23.7952 7.03899 24.1942 7.19999 24.6772 7.19999Z" fill="#6C5CE7"/>
<path d="M37.5175 2.64298L35.449 8.24998H34.189L32.74 4.38598L31.27 8.24998H30.01L27.952 2.64298H29.191L30.6715 6.77998L32.215 2.64298H33.3175L34.8295 6.80098L36.352 2.64298H37.5175Z" fill="#6C5CE7"/>
<path d="M43.5371 5.47798C43.5371 5.56898 43.5301 5.69848 43.5161 5.86648H39.1166C39.1936 6.27948 39.3931 6.60849 39.7151 6.85349C40.0441 7.09149 40.4501 7.21048 40.9331 7.21048C41.5491 7.21048 42.0566 7.00748 42.4556 6.60148L43.1591 7.40998C42.9071 7.71098 42.5886 7.93848 42.2036 8.09248C41.8186 8.24648 41.3846 8.32349 40.9016 8.32349C40.2856 8.32349 39.7431 8.20098 39.2741 7.95598C38.8051 7.71098 38.4411 7.37148 38.1821 6.93748C37.9301 6.49648 37.8041 5.99948 37.8041 5.44648C37.8041 4.90048 37.9266 4.41048 38.1716 3.97648C38.4236 3.53548 38.7701 3.19248 39.2111 2.94748C39.6521 2.70248 40.1491 2.57998 40.7021 2.57998C41.2481 2.57998 41.7346 2.70248 42.1616 2.94748C42.5956 3.18548 42.9316 3.52498 43.1696 3.96598C43.4146 4.39998 43.5371 4.90398 43.5371 5.47798ZM40.7021 3.62998C40.2821 3.62998 39.9251 3.75598 39.6311 4.00798C39.3441 4.25298 39.1691 4.58198 39.1061 4.99498H42.2876C42.2316 4.58898 42.0601 4.25998 41.7731 4.00798C41.4861 3.75598 41.1291 3.62998 40.7021 3.62998Z" fill="#6C5CE7"/>
<path d="M46.0474 3.46198C46.4254 2.87398 47.0904 2.57998 48.0424 2.57998V3.82948C47.9304 3.80848 47.8289 3.79798 47.7379 3.79798C47.2269 3.79798 46.8279 3.94848 46.5409 4.24948C46.2539 4.54348 46.1104 4.97048 46.1104 5.53048V8.24998H44.7979V2.64298H46.0474V3.46198Z" fill="#6C5CE7"/>
<path d="M54.3755 5.47798C54.3755 5.56898 54.3685 5.69848 54.3545 5.86648H49.955C50.032 6.27948 50.2315 6.60849 50.5535 6.85349C50.8825 7.09149 51.2885 7.21048 51.7715 7.21048C52.3875 7.21048 52.895 7.00748 53.294 6.60148L53.9975 7.40998C53.7455 7.71098 53.427 7.93848 53.042 8.09248C52.657 8.24648 52.223 8.32349 51.74 8.32349C51.124 8.32349 50.5815 8.20098 50.1125 7.95598C49.6435 7.71098 49.2795 7.37148 49.0205 6.93748C48.7685 6.49648 48.6425 5.99948 48.6425 5.44648C48.6425 4.90048 48.765 4.41048 49.01 3.97648C49.262 3.53548 49.6085 3.19248 50.0495 2.94748C50.4905 2.70248 50.9875 2.57998 51.5405 2.57998C52.0865 2.57998 52.573 2.70248 53 2.94748C53.434 3.18548 53.77 3.52498 54.008 3.96598C54.253 4.39998 54.3755 4.90398 54.3755 5.47798ZM51.5405 3.62998C51.1205 3.62998 50.7635 3.75598 50.4695 4.00798C50.1825 4.25298 50.0075 4.58198 49.9445 4.99498H53.126C53.07 4.58898 52.8985 4.25998 52.6115 4.00798C52.3245 3.75598 51.9675 3.62998 51.5405 3.62998Z" fill="#6C5CE7"/>
<path d="M61.1277 0.458984V8.24998H59.8677V7.52549C59.6507 7.79149 59.3812 7.99098 59.0592 8.12398C58.7442 8.25698 58.3942 8.32349 58.0092 8.32349C57.4702 8.32349 56.9837 8.20448 56.5497 7.96648C56.1227 7.72848 55.7867 7.39248 55.5417 6.95848C55.2967 6.51748 55.1742 6.01348 55.1742 5.44648C55.1742 4.87948 55.2967 4.37898 55.5417 3.94498C55.7867 3.51098 56.1227 3.17498 56.5497 2.93698C56.9837 2.69898 57.4702 2.57998 58.0092 2.57998C58.3802 2.57998 58.7197 2.64298 59.0277 2.76898C59.3357 2.89498 59.5982 3.08398 59.8152 3.33598V0.458984H61.1277ZM58.1667 7.19999C58.4817 7.19999 58.7652 7.12998 59.0172 6.98998C59.2692 6.84298 59.4687 6.63648 59.6157 6.37048C59.7627 6.10448 59.8362 5.79648 59.8362 5.44648C59.8362 5.09648 59.7627 4.78848 59.6157 4.52248C59.4687 4.25648 59.2692 4.05348 59.0172 3.91348C58.7652 3.76648 58.4817 3.69298 58.1667 3.69298C57.8517 3.69298 57.5682 3.76648 57.3162 3.91348C57.0642 4.05348 56.8647 4.25648 56.7177 4.52248C56.5707 4.78848 56.4972 5.09648 56.4972 5.44648C56.4972 5.79648 56.5707 6.10448 56.7177 6.37048C56.8647 6.63648 57.0642 6.84298 57.3162 6.98998C57.5682 7.12998 57.8517 7.19999 58.1667 7.19999Z" fill="#6C5CE7"/>
<path d="M68.8546 2.57998C69.4006 2.57998 69.8871 2.69898 70.3141 2.93698C70.7481 3.17498 71.0876 3.51098 71.3326 3.94498C71.5776 4.37898 71.7001 4.87948 71.7001 5.44648C71.7001 6.01348 71.5776 6.51748 71.3326 6.95848C71.0876 7.39248 70.7481 7.72848 70.3141 7.96648C69.8871 8.20448 69.4006 8.32349 68.8546 8.32349C68.4696 8.32349 68.1161 8.25698 67.7941 8.12398C67.4791 7.99098 67.2131 7.79149 66.9961 7.52549V8.24998H65.7466V0.458984H67.0591V3.32548C67.2831 3.08048 67.5456 2.89498 67.8466 2.76898C68.1546 2.64298 68.4906 2.57998 68.8546 2.57998ZM68.7076 7.19999C69.1906 7.19999 69.5861 7.03899 69.8941 6.71698C70.2091 6.39499 70.3666 5.97148 70.3666 5.44648C70.3666 4.92148 70.2091 4.49798 69.8941 4.17598C69.5861 3.85398 69.1906 3.69298 68.7076 3.69298C68.3926 3.69298 68.1091 3.76648 67.8571 3.91348C67.6051 4.05348 67.4056 4.25648 67.2586 4.52248C67.1116 4.78848 67.0381 5.09648 67.0381 5.44648C67.0381 5.79648 67.1116 6.10448 67.2586 6.37048C67.4056 6.63648 67.6051 6.84298 67.8571 6.98998C68.1091 7.12998 68.3926 7.19999 68.7076 7.19999Z" fill="#6C5CE7"/>
<path d="M78.041 2.64298L75.416 8.70148C75.171 9.31048 74.8735 9.73749 74.5235 9.98249C74.1735 10.2345 73.75 10.3605 73.253 10.3605C72.973 10.3605 72.6965 10.315 72.4235 10.224C72.1505 10.133 71.9265 10.007 71.7515 9.84598L72.2765 8.87998C72.4025 8.99898 72.5495 9.09349 72.7175 9.16349C72.8925 9.23349 73.0675 9.26848 73.2425 9.26848C73.4735 9.26848 73.6625 9.20898 73.8095 9.08998C73.9635 8.97098 74.1035 8.77149 74.2295 8.49149L74.324 8.27098L71.8775 2.64298H73.2425L75.0065 6.79048L76.781 2.64298H78.041Z" fill="#6C5CE7"/>
<defs>
<linearGradient id="paint0_linear_135_571" x1="9.75" y1="39.3052" x2="139.125" y2="39.3052" gradientUnits="userSpaceOnUse">
<stop stop-color="#7A88FF"/>
<stop offset="0.520833" stop-color="#6C5CE7"/>
<stop offset="1" stop-color="#8A5CE5"/>
</linearGradient>
</defs>
</svg>
