<svg width="171" height="45" viewBox="0 0 171 45" fill="none" xmlns="http://www.w3.org/2000/svg">
<rect width="171" height="45" fill="white"/>
<path d="M11.6247 0V42.5C10.6947 42.314 9.76479 42.314 8.74181 42.5C7.81184 42.686 6.88184 42.872 6.04486 43.244C5.20788 43.616 4.55694 43.9879 3.99895 44.4529L3.16195 43.9879C3.34794 43.43 3.44093 42.965 3.44093 42.407C3.53393 41.849 3.53396 41.384 3.53396 40.826V6.60285C3.53396 4.92889 3.25492 3.71992 2.78993 2.88294C2.32494 2.04596 1.30197 1.67395 0 1.67395V0.464989C1.20897 0.557987 2.32496 0.650967 3.44093 0.650967C4.92889 0.650967 6.41687 0.557987 7.81184 0.464989C9.2068 0.464989 10.4158 0.278993 11.6247 0ZM20.1805 14.0427C23.0635 14.0427 25.4814 15.2516 27.4343 17.5766C29.3873 19.9015 30.3173 23.6214 30.3173 28.4573C30.3173 32.3632 29.7593 35.4322 28.5503 37.7571C27.3414 40.0821 25.8534 41.756 23.9004 42.872C21.9475 43.988 19.8086 44.4529 17.5766 44.4529C16.0886 44.4529 14.6007 44.1739 13.2987 43.709C11.9968 43.151 10.8808 42.314 9.95077 41.105L10.6947 40.826C11.3457 41.663 12.1827 42.221 13.1127 42.686C14.0427 43.058 14.8796 43.337 15.8096 43.337C17.8556 43.337 19.3436 42.221 20.3665 39.896C21.3895 37.5711 21.8545 34.0372 21.8545 29.3873C21.8545 26.2254 21.6685 23.6214 21.2965 21.7615C20.9245 19.9015 20.3665 18.5066 19.6226 17.7626C18.8786 16.9256 17.9486 16.5536 16.9256 16.5536C15.6236 16.5536 14.4147 17.1116 13.3917 18.1346C12.2757 19.1575 11.7177 20.6455 11.5317 22.5985L11.2528 20.6455C11.9038 18.5065 13.0197 16.9256 14.6937 15.8096C16.1817 14.6007 18.0416 14.0427 20.1805 14.0427ZM60.3556 14.2287V37.5711C60.3556 39.2451 60.6346 40.454 61.0996 41.291C61.6575 42.128 62.5875 42.5 63.8895 42.5V43.709C62.7735 43.616 61.5645 43.523 60.4486 43.523C58.8676 43.523 57.4727 43.616 56.0777 43.709C54.6827 43.802 53.4737 43.9879 52.2648 44.3599V39.3381C51.3348 41.198 50.1258 42.5 48.5449 43.337C46.9639 44.174 45.1969 44.5459 43.244 44.5459C41.663 44.5459 40.4541 44.3599 39.4311 43.8949C38.5011 43.5229 37.6641 42.965 37.1061 42.314C36.4552 41.57 35.9901 40.64 35.8041 39.5241C35.5252 38.4081 35.4322 36.9201 35.4322 35.0601V20.9245C35.4322 19.2505 35.1532 18.0416 34.6882 17.2046C34.2232 16.3676 33.2003 15.9956 31.8983 15.9956V14.7866C33.1073 14.8796 34.2232 14.9726 35.3392 14.9726C36.9201 14.9726 38.3151 14.8796 39.7101 14.7866C41.105 14.6936 42.314 14.5076 43.43 14.2287V37.2921C43.43 38.2221 43.523 39.0591 43.709 39.71C43.895 40.454 44.174 41.012 44.732 41.384C45.197 41.756 45.9409 41.942 46.8709 41.942C47.8939 41.942 48.7309 41.663 49.5679 41.105C50.4048 40.547 51.0558 39.803 51.5208 38.7801C51.9858 37.7571 52.2648 36.7341 52.2648 35.4322V20.8315C52.2648 19.1575 51.9858 17.9486 51.5208 17.1116C51.0558 16.2746 50.0328 15.9026 48.7309 15.9026V14.7866C49.9398 14.8796 51.0558 14.9726 52.1718 14.9726C53.7528 14.9726 55.1477 14.8796 56.5427 14.7866C57.9377 14.6936 59.2396 14.5076 60.3556 14.2287ZM85.279 14.0427C86.488 14.0427 87.418 14.3217 88.1619 14.7866C88.9059 15.2516 89.4639 15.9026 89.8359 16.7396C90.2079 17.4836 90.3939 18.3206 90.3939 19.1576C90.3939 20.5525 90.0219 21.6685 89.1849 22.5054C88.3479 23.3424 87.3249 23.8074 86.023 23.8074C84.721 23.8074 83.698 23.5284 82.954 22.8775C82.2101 22.2265 81.8381 21.3895 81.8381 20.2735C81.8381 19.2505 82.0241 18.4136 82.5821 17.6696C83.1401 16.9256 83.605 16.3676 84.349 15.9026C83.791 15.7166 83.326 15.8096 82.768 15.9956C82.0241 16.0886 81.3731 16.3676 80.7221 16.8326C80.0711 17.2976 79.5131 17.8556 79.1412 18.5996C78.6762 19.2505 78.3041 19.9945 78.1181 20.8315C77.8391 21.6685 77.7462 22.4125 77.7462 23.1564V37.9431C77.7462 39.71 78.2111 40.919 79.0481 41.57C79.8851 42.221 81.1871 42.5 82.954 42.5V43.709C82.1171 43.709 80.8151 43.616 79.2341 43.616C77.5602 43.523 75.8862 43.523 74.1192 43.523C72.6313 43.523 71.1434 43.523 69.5624 43.616C68.0744 43.709 66.8654 43.709 66.1215 43.709V42.5C67.4234 42.5 68.3534 42.221 68.9114 41.663C69.4694 41.105 69.7483 40.082 69.7483 38.5011V20.9245C69.7483 19.2505 69.4694 18.0416 69.0044 17.2046C68.5394 16.3676 67.5164 15.9956 66.2144 15.9956V14.7866C67.4234 14.8796 68.5394 14.9726 69.6554 14.9726C71.2363 14.9726 72.6313 14.8796 74.0263 14.7866C75.4212 14.6936 76.6302 14.5076 77.7462 14.2287V19.4365C78.2112 18.4136 78.7691 17.4836 79.5131 16.7396C80.2571 15.9026 81.0941 15.2516 82.1171 14.7866C83.0471 14.3217 84.07 14.0427 85.279 14.0427ZM102.391 14.0427C103.972 14.0427 105.366 14.2286 106.482 14.6006C107.691 14.9726 108.528 15.3446 108.993 15.7166C110.295 16.5536 111.039 15.9956 111.318 14.0427H112.527C112.434 15.0656 112.434 16.3676 112.341 17.8556C112.248 19.3435 112.248 21.3895 112.248 23.8074H111.039C110.853 22.4125 110.481 21.1105 110.016 19.7155C109.458 18.4135 108.714 17.2976 107.784 16.4606C106.761 15.6236 105.553 15.1586 103.972 15.1586C102.856 15.1586 102.019 15.4376 101.275 16.0886C100.531 16.7396 100.159 17.5766 100.159 18.6926C100.159 19.8085 100.531 20.7385 101.182 21.6685C101.833 22.5055 102.67 23.3424 103.786 24.0864C104.809 24.8304 105.924 25.6674 107.133 26.5044C108.342 27.4343 109.458 28.3643 110.481 29.2943C111.504 30.2243 112.248 31.1542 112.899 32.2702C113.457 33.3862 113.829 34.5952 113.829 36.0831C113.829 37.7571 113.364 39.2451 112.341 40.454C111.411 41.663 110.109 42.686 108.528 43.337C106.947 43.988 105.18 44.3599 103.228 44.3599C102.112 44.3599 101.089 44.2669 100.252 43.9879C99.4147 43.8019 98.5777 43.523 98.0197 43.151C97.5547 42.965 97.0897 42.686 96.6247 42.5C96.1597 42.314 95.7878 42.128 95.4158 41.942C95.0438 41.849 94.6718 41.942 94.4858 42.314C94.2068 42.686 94.0208 43.244 93.8348 43.8949H92.6258C92.7188 42.686 92.7188 41.291 92.8118 39.5241C92.9048 37.7571 92.9048 35.5251 92.9048 32.7352H94.1138C94.2998 34.7812 94.7647 36.5481 95.3227 38.0361C95.8807 39.6171 96.7177 40.826 97.7407 41.663C98.7637 42.5 100.066 42.965 101.647 42.965C102.298 42.965 102.856 42.872 103.507 42.593C104.065 42.314 104.623 41.942 104.995 41.291C105.367 40.733 105.552 39.896 105.552 38.9661C105.552 37.2921 104.995 35.9901 103.972 34.8742C102.949 33.7582 101.554 32.6422 99.9726 31.3402C98.7637 30.4103 97.6477 29.3873 96.6247 28.4573C95.6018 27.5274 94.6718 26.5044 94.0208 25.2954C93.3698 24.1794 92.9978 22.8775 92.9978 21.3895C92.9978 19.7155 93.4628 18.3206 94.2998 17.1116C95.2298 15.9956 96.3457 15.0656 97.8337 14.5077C99.1357 14.3217 100.717 14.0427 102.391 14.0427ZM124.803 44.0809C123.129 44.0809 121.734 43.802 120.618 43.151C119.502 42.5 118.665 41.663 118.2 40.64C117.642 39.617 117.456 38.4081 117.456 37.1061C117.456 35.5251 117.828 34.2232 118.572 33.2002C119.316 32.1772 120.246 31.3403 121.362 30.7823C122.478 30.1313 123.78 29.6663 124.989 29.2013C126.291 28.8293 127.5 28.3643 128.709 27.9923C129.918 27.6203 130.848 27.1554 131.592 26.5974C132.336 26.0394 132.708 25.3884 132.708 24.5514V20.1805C132.708 19.2505 132.522 18.3206 132.243 17.5766C131.964 16.8326 131.406 16.1816 130.755 15.8096C130.104 15.4376 129.267 15.1586 128.244 15.1586C127.5 15.1586 126.756 15.2516 126.012 15.4376C125.268 15.6236 124.617 15.9956 124.152 16.4606C125.175 16.8326 126.012 17.3906 126.57 18.1346C127.128 18.8786 127.407 19.8085 127.407 20.7385C127.407 22.0405 126.942 22.9705 126.105 23.7144C125.268 24.4584 124.152 24.8304 123.036 24.8304C121.734 24.8304 120.711 24.4584 119.967 23.6214C119.316 22.7845 118.944 21.7615 118.944 20.5525C118.944 19.4365 119.223 18.5995 119.781 17.8556C120.339 17.1116 121.083 16.4606 122.013 15.8096C123.036 15.2516 124.338 14.7866 125.733 14.4147C127.221 14.0427 128.802 13.9497 130.476 13.9497C132.15 13.9497 133.731 14.1357 135.126 14.5077C136.521 14.8797 137.637 15.5306 138.567 16.4606C139.404 17.2976 139.962 18.3206 140.241 19.6225C140.52 20.8315 140.613 22.4125 140.613 24.3654V39.5241C140.613 40.454 140.706 41.105 140.892 41.477C141.078 41.849 141.357 42.035 141.822 42.035C142.194 42.035 142.473 41.942 142.752 41.756C143.031 41.57 143.403 41.384 143.775 41.105L144.333 42.035C143.589 42.686 142.659 43.244 141.636 43.616C140.613 43.9879 139.497 44.1739 138.195 44.1739C136.8 44.1739 135.684 43.9879 134.94 43.616C134.196 43.244 133.545 42.686 133.173 42.035C132.801 41.384 132.615 40.547 132.615 39.71C131.685 41.105 130.662 42.221 129.36 43.058C128.151 43.7089 126.663 44.0809 124.803 44.0809ZM128.802 40.454C129.546 40.454 130.197 40.268 130.848 39.896C131.499 39.5241 132.057 38.9661 132.615 38.1291V26.6903C132.243 27.2483 131.778 27.7133 131.22 28.1783C130.662 28.6433 130.011 29.1083 129.36 29.5733C128.709 30.0383 128.058 30.5033 127.407 31.1543C126.756 31.7122 126.291 32.3632 125.919 33.2002C125.547 34.0372 125.361 34.9672 125.361 36.1761C125.361 37.6641 125.64 38.6871 126.291 39.4311C126.942 40.175 127.686 40.454 128.802 40.454ZM164.885 14.0427C166.094 14.0427 167.024 14.3217 167.768 14.7866C168.512 15.2516 169.07 15.9026 169.442 16.7396C169.814 17.4836 170 18.3206 170 19.1576C170 20.5525 169.628 21.6685 168.791 22.5054C167.954 23.3424 166.931 23.8074 165.629 23.8074C164.327 23.8074 163.304 23.5284 162.56 22.8775C161.816 22.2265 161.444 21.3895 161.444 20.2735C161.444 19.2505 161.63 18.4136 162.188 17.6696C162.653 17.0186 163.211 16.3676 163.955 15.9026C163.397 15.7166 162.932 15.8096 162.374 15.9956C161.63 16.0886 160.979 16.3676 160.328 16.8326C159.677 17.2976 159.119 17.8556 158.747 18.5996C158.282 19.2505 157.91 19.9945 157.724 20.8315C157.445 21.6685 157.352 22.4125 157.352 23.1564V37.9431C157.352 39.71 157.817 40.919 158.654 41.57C159.491 42.221 160.793 42.5 162.56 42.5V43.709C161.723 43.709 160.421 43.616 158.84 43.616C157.166 43.523 155.492 43.523 153.725 43.523C152.237 43.523 150.749 43.523 149.168 43.616C147.681 43.709 146.472 43.709 145.728 43.709V42.5C147.03 42.5 147.959 42.221 148.517 41.663C149.075 41.105 149.354 40.082 149.354 38.5011V20.9245C149.354 19.2505 149.076 18.0416 148.611 17.2046C148.146 16.3676 147.123 15.9956 145.821 15.9956V14.7866C147.03 14.8796 148.145 14.9726 149.261 14.9726C150.842 14.9726 152.237 14.8796 153.632 14.7866C155.027 14.6936 156.236 14.5076 157.352 14.2287V19.4365C157.817 18.4136 158.375 17.4836 159.119 16.7396C159.863 15.9026 160.7 15.2516 161.723 14.7866C162.746 14.3217 163.769 14.0427 164.885 14.0427Z" fill="#222125"/>
</svg>
