<?xml version="1.0" encoding="utf-8"?>
<!-- Generator: Adobe Illustrator 24.2.0, SVG Export Plug-In . SVG Version: 6.00 Build 0)  -->
<svg version="1.1" id="Layer_1" xmlns="http://www.w3.org/2000/svg" xmlns:xlink="http://www.w3.org/1999/xlink" x="0px" y="0px"
	 viewBox="0 0 24 36" style="enable-background:new 0 0 24 36;" xml:space="preserve">
<style type="text/css">
	.st0{opacity:0.2;fill:#ED4C3C;}
	.st1{fill:#FF6D6A;}
	.st2{fill-rule:evenodd;clip-rule:evenodd;fill:#ED4C3C;}
</style>
<path id="Path" class="st0" d="M12,24.2c-5.3,0-9.6,1.6-9.6,3.6c0,0.5,0.2,0.9,0.7,1.3l0.2,0.2c0.2,0.2,0.4,0.3,0.6,0.4l0.2,0.1
	L12,35l8-5.3c0.2-0.1,0.4-0.2,0.6-0.4l0.1-0.1l0.1-0.1c0.5-0.4,0.8-0.8,0.8-1.3v-0.1C21.6,25.8,17.3,24.2,12,24.2z"/>
<path class="st1" d="M20,4.3C17.9,2.2,15,1,12,1S6.1,2.2,4,4.3s-3.3,5-3.3,8c0,2.4,0.8,4.8,2.1,6.6c0.3,0.4,0.5,0.7,0.8,1.2L12,35
	l8.4-14.8c0.2-0.4,0.5-0.8,0.7-1.1c1.4-1.9,2.2-4.3,2.2-6.7C23.3,9.3,22.2,6.5,20,4.3z"/>
<circle id="Oval" class="st2" cx="12" cy="12.4" r="3.9"/>
</svg>
